<svg data-v-fde0c5aa="" xmlns="http://www.w3.org/2000/svg" viewBox="0 0 300 300" class="iconLeft"><!----><defs data-v-fde0c5aa=""><!----></defs><rect data-v-fde0c5aa="" fill="transparent" x="0" y="0" width="300px" height="300px" class="logo-background-square"></rect><defs data-v-fde0c5aa=""><!----></defs><g data-v-fde0c5aa="" id="073b14e2-bdb9-492c-92c6-9d2f45767f7f" fill="#000000" transform="matrix(1.356887645129714,0,0,1.356887645129714,78.06850868837057,141.1463076765192)"><path d="M4.63 10.50L1.13 10.50L1.13 1.36L4.63 1.36L4.63 1.36Q5.66 1.36 6.47 1.71L6.47 1.71L6.47 1.71Q7.28 2.06 7.85 2.67L7.85 2.67L7.85 2.67Q8.41 3.28 8.72 4.11L8.72 4.11L8.72 4.11Q9.03 4.94 9.03 5.92L9.03 5.92L9.03 5.92Q9.03 6.92 8.72 7.75L8.72 7.75L8.72 7.75Q8.41 8.58 7.85 9.20L7.85 9.20L7.85 9.20Q7.28 9.81 6.47 10.16L6.47 10.16L6.47 10.16Q5.66 10.50 4.63 10.50L4.63 10.50ZM3.12 2.91L3.12 8.95L4.34 8.95L4.34 8.95Q4.97 8.95 5.45 8.71L5.45 8.71L5.45 8.71Q5.94 8.48 6.27 8.09L6.27 8.09L6.27 8.09Q6.59 7.69 6.77 7.13L6.77 7.13L6.77 7.13Q6.94 6.58 6.94 5.92L6.94 5.92L6.94 5.92Q6.94 5.28 6.77 4.72L6.77 4.72L6.77 4.72Q6.59 4.17 6.27 3.77L6.27 3.77L6.27 3.77Q5.94 3.37 5.45 3.14L5.45 3.14L5.45 3.14Q4.97 2.91 4.34 2.91L4.34 2.91L3.12 2.91ZM14.14 10.65L14.14 10.65L14.14 10.65Q12.98 10.65 12.22 10.35L12.22 10.35L12.22 10.35Q11.47 10.04 11.01 9.52L11.01 9.52L11.01 9.52Q10.56 9.00 10.37 8.32L10.37 8.32L10.37 8.32Q10.19 7.64 10.19 6.89L10.19 6.89L10.19 6.89Q10.19 6.22 10.37 5.54L10.37 5.54L10.37 5.54Q10.56 4.87 10.96 4.33L10.96 4.33L10.96 4.33Q11.35 3.79 12.00 3.46L12.00 3.46L12.00 3.46Q12.64 3.12 13.57 3.12L13.57 3.12L13.57 3.12Q14.55 3.12 15.20 3.46L15.20 3.46L15.20 3.46Q15.85 3.79 16.24 4.33L16.24 4.33L16.24 4.33Q16.63 4.87 16.79 5.54L16.79 5.54L16.79 5.54Q16.95 6.22 16.95 6.89L16.95 6.89L16.95 7.52L12.00 7.52L12.00 7.52Q12.00 8.27 12.54 8.76L12.54 8.76L12.54 8.76Q13.08 9.25 14.01 9.25L14.01 9.25L14.01 9.25Q14.55 9.25 14.99 9.14L14.99 9.14L14.99 9.14Q15.44 9.03 15.76 8.89L15.76 8.89L15.76 8.89Q16.13 8.74 16.44 8.53L16.44 8.53L16.44 10.09L16.44 10.09Q16.44 10.11 16.25 10.19L16.25 10.19L16.25 10.19Q16.07 10.28 15.76 10.38L15.76 10.38L15.76 10.38Q15.46 10.49 15.04 10.57L15.04 10.57L15.04 10.57Q14.62 10.65 14.14 10.65ZM12.00 6.19L15.18 6.19L15.18 6.19Q15.18 5.95 15.11 5.66L15.11 5.66L15.11 5.66Q15.05 5.38 14.88 5.12L14.88 5.12L14.88 5.12Q14.70 4.87 14.39 4.70L14.39 4.70L14.39 4.70Q14.07 4.54 13.57 4.54L13.57 4.54L13.57 4.54Q13.13 4.54 12.83 4.70L12.83 4.70L12.83 4.70Q12.53 4.87 12.35 5.12L12.35 5.12L12.35 5.12Q12.17 5.38 12.08 5.66L12.08 5.66L12.08 5.66Q12.00 5.95 12.00 6.19L12.00 6.19ZM20.36 8.48L20.36 8.48L20.36 8.48Q20.37 8.72 20.48 8.86L20.48 8.86L20.48 8.86Q20.59 9.00 20.76 9.06L20.76 9.06L20.76 9.06Q20.92 9.13 21.12 9.13L21.12 9.13L21.12 9.13Q21.32 9.14 21.55 9.11L21.55 9.11L21.55 10.56L21.55 10.56Q21.35 10.60 21.20 10.62L21.20 10.62L21.20 10.62Q21.06 10.64 20.94 10.65L20.94 10.65L20.94 10.65Q20.82 10.67 20.73 10.65L20.73 10.65L20.73 10.65Q20.20 10.65 19.78 10.61L19.78 10.61L19.78 10.61Q19.36 10.57 19.07 10.34L19.07 10.34L19.07 10.34Q18.77 10.11 18.62 9.64L18.62 9.64L18.62 9.64Q18.47 9.17 18.47 8.30L18.47 8.30L18.47 1.55L20.36 1.55L20.36 8.48ZM27.40 10.65L27.40 10.65L27.40 10.65Q26.85 10.65 26.45 10.49L26.45 10.49L26.45 10.49Q26.04 10.32 25.76 10.11L25.76 10.11L25.76 10.11Q25.44 9.87 25.20 9.56L25.20 9.56L25.20 12.22L23.32 12.22L23.32 3.29L24.78 3.29L25.14 4.24L25.14 4.24Q25.35 3.93 25.68 3.68L25.68 3.68L25.68 3.68Q25.96 3.47 26.38 3.30L26.38 3.30L26.38 3.30Q26.80 3.12 27.40 3.12L27.40 3.12L27.40 3.12Q28.22 3.12 28.80 3.42L28.80 3.42L28.80 3.42Q29.37 3.72 29.73 4.23L29.73 4.23L29.73 4.23Q30.09 4.73 30.25 5.41L30.25 5.41L30.25 5.41Q30.41 6.09 30.41 6.85L30.41 6.85L30.41 6.85Q30.41 7.60 30.25 8.29L30.25 8.29L30.25 8.29Q30.09 8.99 29.73 9.51L29.73 9.51L29.73 9.51Q29.37 10.04 28.80 10.35L28.80 10.35L28.80 10.35Q28.22 10.65 27.40 10.65ZM26.81 4.59L26.81 4.59L26.81 4.59Q26.14 4.59 25.67 5.14L25.67 5.14L25.67 5.14Q25.20 5.68 25.20 6.85L25.20 6.85L25.20 6.85Q25.20 7.99 25.67 8.60L25.67 8.60L25.67 8.60Q26.14 9.20 26.81 9.20L26.81 9.20L26.81 9.20Q27.15 9.20 27.44 9.04L27.44 9.04L27.44 9.04Q27.73 8.89 27.95 8.60L27.95 8.60L27.95 8.60Q28.17 8.30 28.30 7.86L28.30 7.86L28.30 7.86Q28.43 7.42 28.43 6.85L28.43 6.85L28.43 6.85Q28.43 6.27 28.30 5.84L28.30 5.84L28.30 5.84Q28.17 5.42 27.95 5.14L27.95 5.14L27.95 5.14Q27.73 4.86 27.44 4.72L27.44 4.72L27.44 4.72Q27.15 4.59 26.81 4.59ZM36.01 3.12L36.01 3.12L36.01 3.12Q36.65 3.12 37.11 3.34L37.11 3.34L37.11 3.34Q37.58 3.56 37.88 3.93L37.88 3.93L37.88 3.93Q38.18 4.31 38.32 4.83L38.32 4.83L38.32 4.83Q38.46 5.35 38.46 5.95L38.46 5.95L38.46 10.50L36.58 10.50L36.58 6.58L36.58 6.58Q36.58 5.54 36.30 5.05L36.30 5.05L36.30 5.05Q36.02 4.56 35.34 4.56L35.34 4.56L35.34 4.56Q34.51 4.56 34.11 5.25L34.11 5.25L34.11 5.25Q33.71 5.94 33.71 7.06L33.71 7.06L33.71 10.50L31.84 10.50L31.84 1.55L33.61 1.55L33.61 4.27L33.61 4.27Q33.75 4.12 33.92 3.91L33.92 3.91L33.92 3.91Q34.09 3.71 34.35 3.54L34.35 3.54L34.35 3.54Q34.61 3.36 35.01 3.24L35.01 3.24L35.01 3.24Q35.41 3.12 36.01 3.12ZM42.41 10.50L40.52 10.50L40.52 3.29L42.41 3.29L42.41 10.50ZM42.50 1.02L42.50 1.02L42.50 1.02Q42.50 1.47 42.20 1.78L42.20 1.78L42.20 1.78Q41.89 2.09 41.45 2.09L41.45 2.09L41.45 2.09Q41.01 2.09 40.70 1.78L40.70 1.78L40.70 1.78Q40.39 1.47 40.39 1.02L40.39 1.02L40.39 1.02Q40.39 0.59 40.70 0.29L40.70 0.29L40.70 0.29Q41.01-0.01 41.45-0.01L41.45-0.01L41.45-0.01Q41.89-0.01 42.20 0.29L42.20 0.29L42.20 0.29Q42.50 0.59 42.50 1.02ZM50.47 2.93L50.47 5.01L51.49 5.01L51.49 5.01Q51.73 5.01 51.97 4.96L51.97 4.96L51.97 4.96Q52.21 4.90 52.39 4.77L52.39 4.77L52.39 4.77Q52.57 4.63 52.68 4.42L52.68 4.42L52.68 4.42Q52.79 4.21 52.79 3.91L52.79 3.91L52.79 3.91Q52.79 3.60 52.68 3.40L52.68 3.40L52.68 3.40Q52.57 3.21 52.38 3.10L52.38 3.10L52.38 3.10Q52.19 3.00 51.95 2.96L51.95 2.96L51.95 2.96Q51.70 2.93 51.42 2.93L51.42 2.93L50.47 2.93ZM55.02 7.74L55.02 7.76L55.02 7.76Q55.02 8.51 54.71 9.04L54.71 9.04L54.71 9.04Q54.39 9.56 53.87 9.89L53.87 9.89L53.87 9.89Q53.34 10.22 52.67 10.36L52.67 10.36L52.67 10.36Q52.00 10.50 51.28 10.50L51.28 10.50L48.50 10.50L48.50 1.36L51.46 1.36L51.46 1.36Q52.12 1.36 52.72 1.49L52.72 1.49L52.72 1.49Q53.31 1.62 53.76 1.92L53.76 1.92L53.76 1.92Q54.21 2.23 54.47 2.72L54.47 2.72L54.47 2.72Q54.74 3.21 54.75 3.93L54.75 3.93L54.75 3.95L54.75 3.95Q54.75 4.59 54.47 4.96L54.47 4.96L54.47 4.96Q54.18 5.32 53.84 5.52L53.84 5.52L53.84 5.52Q53.45 5.74 52.95 5.80L52.95 5.80L52.95 5.80Q53.52 5.85 53.98 6.09L53.98 6.09L53.98 6.09Q54.38 6.29 54.70 6.68L54.70 6.68L54.70 6.68Q55.02 7.07 55.02 7.74L55.02 7.74ZM50.47 8.95L51.58 8.95L51.58 8.95Q51.87 8.95 52.14 8.88L52.14 8.88L52.14 8.88Q52.40 8.82 52.61 8.67L52.61 8.67L52.61 8.67Q52.81 8.53 52.93 8.29L52.93 8.29L52.93 8.29Q53.05 8.05 53.05 7.70L53.05 7.70L53.05 7.70Q53.05 7.34 52.92 7.10L52.92 7.10L52.92 7.10Q52.79 6.86 52.58 6.72L52.58 6.72L52.58 6.72Q52.37 6.58 52.09 6.52L52.09 6.52L52.09 6.52Q51.80 6.47 51.48 6.47L51.48 6.47L50.47 6.47L50.47 8.95ZM60.98 3.18L60.98 5.10L60.98 5.10Q60.66 5.03 60.40 5.02L60.40 5.02L60.40 5.02Q60.14 5.01 59.92 5.03L59.92 5.03L59.92 5.03Q59.47 5.05 59.19 5.22L59.19 5.22L59.19 5.22Q58.90 5.39 58.74 5.66L58.74 5.66L58.74 5.66Q58.59 5.94 58.53 6.28L58.53 6.28L58.53 6.28Q58.48 6.62 58.48 6.99L58.48 6.99L58.48 10.50L56.59 10.50L56.59 3.36L57.97 3.36L58.27 4.93L58.27 4.93Q58.27 4.93 58.30 4.77L58.30 4.77L58.30 4.77Q58.34 4.61 58.44 4.38L58.44 4.38L58.44 4.38Q58.55 4.14 58.74 3.88L58.74 3.88L58.74 3.88Q58.94 3.63 59.24 3.43L59.24 3.43L59.24 3.43Q59.54 3.23 59.97 3.15L59.97 3.15L59.97 3.15Q60.40 3.07 60.98 3.18L60.98 3.18ZM64.90 3.12L64.90 3.12L64.90 3.12Q65.37 3.12 65.90 3.27L65.90 3.27L65.90 3.27Q66.43 3.42 66.89 3.75L66.89 3.75L66.89 3.75Q67.35 4.07 67.65 4.59L67.65 4.59L67.65 4.59Q67.94 5.11 67.93 5.85L67.93 5.85L67.93 10.50L66.56 10.50L66.56 10.50Q66.56 10.50 66.51 10.33L66.51 10.33L66.51 10.33Q66.47 10.16 66.42 9.95L66.42 9.95L66.42 9.95Q66.37 9.74 66.33 9.58L66.33 9.58L66.33 9.58Q66.29 9.42 66.29 9.44L66.29 9.44L66.29 9.44Q66.09 9.79 65.77 10.05L65.77 10.05L65.77 10.05Q65.49 10.29 65.05 10.47L65.05 10.47L65.05 10.47Q64.61 10.65 63.97 10.65L63.97 10.65L63.97 10.65Q63.52 10.65 63.08 10.52L63.08 10.52L63.08 10.52Q62.65 10.39 62.31 10.13L62.31 10.13L62.31 10.13Q61.96 9.87 61.75 9.48L61.75 9.48L61.75 9.48Q61.53 9.09 61.52 8.57L61.52 8.57L61.52 8.57Q61.49 8.02 61.66 7.59L61.66 7.59L61.66 7.59Q61.84 7.17 62.17 6.86L62.17 6.86L62.17 6.86Q62.50 6.55 62.96 6.36L62.96 6.36L62.96 6.36Q63.42 6.17 63.97 6.10L63.97 6.10L63.97 6.10Q64.48 6.03 65.10 6.03L65.10 6.03L65.10 6.03Q65.72 6.03 66.21 6.06L66.21 6.06L66.21 5.84L66.21 5.84Q66.21 5.24 65.94 4.93L65.94 4.93L65.94 4.93Q65.67 4.63 65.28 4.54L65.28 4.54L65.28 4.54Q64.88 4.45 64.40 4.52L64.40 4.52L64.40 4.52Q63.92 4.59 63.49 4.72L63.49 4.72L63.49 4.72Q63.06 4.86 62.73 5.00L62.73 5.00L62.73 5.00Q62.40 5.15 62.31 5.22L62.31 5.22L62.31 3.81L62.31 3.81Q62.33 3.79 62.57 3.69L62.57 3.69L62.57 3.69Q62.80 3.58 63.17 3.46L63.17 3.46L63.17 3.46Q63.53 3.33 63.99 3.23L63.99 3.23L63.99 3.23Q64.44 3.12 64.90 3.12ZM65.80 8.68L65.80 8.68L65.80 8.68Q66.04 8.37 66.12 7.99L66.12 7.99L66.12 7.99Q66.19 7.62 66.19 7.20L66.19 7.20L65.38 7.20L65.38 7.20Q65.06 7.20 64.69 7.24L64.69 7.24L64.69 7.24Q64.33 7.28 64.02 7.41L64.02 7.41L64.02 7.41Q63.71 7.53 63.50 7.78L63.50 7.78L63.50 7.78Q63.29 8.02 63.29 8.44L63.29 8.44L63.29 8.44Q63.29 8.90 63.64 9.11L63.64 9.11L63.64 9.11Q63.98 9.32 64.48 9.32L64.48 9.32L64.48 9.32Q64.92 9.32 65.25 9.15L65.25 9.15L65.25 9.15Q65.58 8.97 65.80 8.68ZM72.98 3.12L72.98 3.12L72.98 3.12Q73.42 3.12 73.75 3.18L73.75 3.18L73.75 3.18Q74.09 3.23 74.33 3.30L74.33 3.30L74.33 3.30Q74.59 3.39 74.82 3.49L74.82 3.49L74.82 4.82L74.82 4.82Q74.27 4.65 73.63 4.59L73.63 4.59L73.63 4.59Q73.00 4.54 72.45 4.74L72.45 4.74L72.45 4.74Q71.90 4.94 71.54 5.45L71.54 5.45L71.54 5.45Q71.18 5.95 71.18 6.89L71.18 6.89L71.18 6.89Q71.18 7.87 71.54 8.38L71.54 8.38L71.54 8.38Q71.90 8.89 72.45 9.06L72.45 9.06L72.45 9.06Q73.00 9.24 73.63 9.15L73.63 9.15L73.63 9.15Q74.27 9.06 74.82 8.85L74.82 8.85L74.82 10.23L74.82 10.23Q74.61 10.36 74.33 10.44L74.33 10.44L74.33 10.44Q74.09 10.53 73.75 10.59L73.75 10.59L73.75 10.59Q73.40 10.65 72.97 10.65L72.97 10.65L72.97 10.65Q72.42 10.65 71.76 10.51L71.76 10.51L71.76 10.51Q71.11 10.37 70.54 9.97L70.54 9.97L70.54 9.97Q69.97 9.56 69.59 8.83L69.59 8.83L69.59 8.83Q69.22 8.09 69.22 6.89L69.22 6.89L69.22 6.89Q69.22 5.70 69.59 4.96L69.59 4.96L69.59 4.96Q69.97 4.21 70.54 3.81L70.54 3.81L70.54 3.81Q71.11 3.40 71.76 3.26L71.76 3.26L71.76 3.26Q72.42 3.12 72.98 3.12ZM82.52 3.29L79.94 6.99L79.94 6.99Q80.23 7.39 80.57 7.84L80.57 7.84L80.57 7.84Q80.91 8.29 81.25 8.75L81.25 8.75L81.25 8.75Q81.59 9.21 81.92 9.66L81.92 9.66L81.92 9.66Q82.25 10.11 82.54 10.50L82.54 10.50L80.39 10.50L78.46 7.76L78.04 7.76L78.04 10.50L76.16 10.50L76.16 1.55L78.04 1.55L78.04 6.19L78.44 6.19L78.44 6.19Q78.44 6.19 78.59 5.97L78.59 5.97L78.59 5.97Q78.74 5.75 78.95 5.43L78.95 5.43L78.95 5.43Q79.17 5.11 79.42 4.74L79.42 4.74L79.42 4.74Q79.67 4.37 79.88 4.05L79.88 4.05L79.88 4.05Q80.09 3.72 80.24 3.51L80.24 3.51L80.24 3.51Q80.39 3.29 80.39 3.29L80.39 3.29L82.52 3.29ZM87.08 10.65L87.08 10.65L87.08 10.65Q85.92 10.65 85.16 10.35L85.16 10.35L85.16 10.35Q84.41 10.04 83.95 9.52L83.95 9.52L83.95 9.52Q83.50 9.00 83.31 8.32L83.31 8.32L83.31 8.32Q83.13 7.64 83.13 6.89L83.13 6.89L83.13 6.89Q83.13 6.22 83.31 5.54L83.31 5.54L83.31 5.54Q83.50 4.87 83.90 4.33L83.90 4.33L83.90 4.33Q84.29 3.79 84.94 3.46L84.94 3.46L84.94 3.46Q85.58 3.12 86.51 3.12L86.51 3.12L86.51 3.12Q87.49 3.12 88.14 3.46L88.14 3.46L88.14 3.46Q88.79 3.79 89.18 4.33L89.18 4.33L89.18 4.33Q89.57 4.87 89.73 5.54L89.73 5.54L89.73 5.54Q89.89 6.22 89.89 6.89L89.89 6.89L89.89 7.52L84.94 7.52L84.94 7.52Q84.94 8.27 85.48 8.76L85.48 8.76L85.48 8.76Q86.02 9.25 86.95 9.25L86.95 9.25L86.95 9.25Q87.49 9.25 87.93 9.14L87.93 9.14L87.93 9.14Q88.38 9.03 88.70 8.89L88.70 8.89L88.70 8.89Q89.07 8.74 89.38 8.53L89.38 8.53L89.38 10.09L89.38 10.09Q89.38 10.11 89.19 10.19L89.19 10.19L89.19 10.19Q89.01 10.28 88.70 10.38L88.70 10.38L88.70 10.38Q88.40 10.49 87.98 10.57L87.98 10.57L87.98 10.57Q87.56 10.65 87.08 10.65ZM84.94 6.19L88.12 6.19L88.12 6.19Q88.12 5.95 88.05 5.66L88.05 5.66L88.05 5.66Q87.99 5.38 87.82 5.12L87.82 5.12L87.82 5.12Q87.64 4.87 87.33 4.70L87.33 4.70L87.33 4.70Q87.01 4.54 86.51 4.54L86.51 4.54L86.51 4.54Q86.07 4.54 85.77 4.70L85.77 4.70L85.77 4.70Q85.47 4.87 85.29 5.12L85.29 5.12L85.29 5.12Q85.11 5.38 85.02 5.66L85.02 5.66L85.02 5.66Q84.94 5.95 84.94 6.19L84.94 6.19ZM94.30 9.20L94.30 9.20L94.30 9.20Q94.71 9.20 95.06 9.13L95.06 9.13L95.06 9.13Q95.23 9.09 95.40 9.04L95.40 9.04L95.41 10.50L95.41 10.50Q95.16 10.54 94.88 10.58L94.88 10.58L94.88 10.58Q94.64 10.61 94.32 10.63L94.32 10.63L94.32 10.63Q94.00 10.65 93.63 10.65L93.63 10.65L93.63 10.65Q93.10 10.60 92.69 10.33L92.69 10.33L92.69 10.33Q92.34 10.09 92.06 9.63L92.06 9.63L92.06 9.63Q91.77 9.16 91.77 8.30L91.77 8.30L91.77 5.36L90.40 5.36L90.40 3.99L91.77 3.99L91.77 1.97L93.63 1.55L93.63 3.99L95.33 3.99L95.33 5.36L93.66 5.36L93.66 8.20L93.66 8.20Q93.66 8.39 93.71 8.56L93.71 8.56L93.71 8.56Q93.76 8.74 93.85 8.88L93.85 8.88L93.85 8.88Q93.94 9.02 94.06 9.11L94.06 9.11L94.06 9.11Q94.18 9.20 94.30 9.20ZM100.16 3.12L100.16 3.12L100.16 3.12Q100.72 3.12 101.37 3.29L101.37 3.29L101.37 3.29Q102.03 3.46 102.61 3.88L102.61 3.88L102.61 3.88Q103.18 4.30 103.57 5.03L103.57 5.03L103.57 5.03Q103.95 5.75 103.95 6.89L103.95 6.89L103.95 6.89Q103.95 8.02 103.57 8.75L103.57 8.75L103.57 8.75Q103.18 9.48 102.61 9.90L102.61 9.90L102.61 9.90Q102.03 10.32 101.37 10.49L101.37 10.49L101.37 10.49Q100.72 10.65 100.16 10.65L100.16 10.65L100.16 10.65Q99.60 10.65 98.94 10.49L98.94 10.49L98.94 10.49Q98.28 10.32 97.71 9.90L97.71 9.90L97.71 9.90Q97.15 9.48 96.77 8.75L96.77 8.75L96.77 8.75Q96.39 8.02 96.39 6.89L96.39 6.89L96.39 6.89Q96.39 5.75 96.77 5.03L96.77 5.03L96.77 5.03Q97.15 4.30 97.71 3.88L97.71 3.88L97.71 3.88Q98.28 3.46 98.94 3.29L98.94 3.29L98.94 3.29Q99.60 3.12 100.16 3.12ZM100.16 9.25L100.16 9.25L100.16 9.25Q100.94 9.25 101.47 8.64L101.47 8.64L101.47 8.64Q101.99 8.02 101.99 6.89L101.99 6.89L101.99 6.89Q101.99 5.75 101.47 5.14L101.47 5.14L101.47 5.14Q100.94 4.54 100.16 4.54L100.16 4.54L100.16 4.54Q99.40 4.54 98.88 5.14L98.88 5.14L98.88 5.14Q98.36 5.75 98.36 6.89L98.36 6.89L98.36 6.89Q98.36 7.45 98.50 7.89L98.50 7.89L98.50 7.89Q98.64 8.33 98.88 8.63L98.88 8.63L98.88 8.63Q99.12 8.93 99.45 9.09L99.45 9.09L99.45 9.09Q99.78 9.25 100.16 9.25ZM107.35 8.48L107.35 8.48L107.35 8.48Q107.37 8.72 107.48 8.86L107.48 8.86L107.48 8.86Q107.59 9.00 107.75 9.06L107.75 9.06L107.75 9.06Q107.91 9.13 108.12 9.13L108.12 9.13L108.12 9.13Q108.32 9.14 108.54 9.11L108.54 9.11L108.54 10.56L108.54 10.56Q108.35 10.60 108.20 10.62L108.20 10.62L108.20 10.62Q108.05 10.64 107.94 10.65L107.94 10.65L107.94 10.65Q107.81 10.67 107.73 10.65L107.73 10.65L107.73 10.65Q107.20 10.65 106.78 10.61L106.78 10.61L106.78 10.61Q106.36 10.57 106.06 10.34L106.06 10.34L106.06 10.34Q105.77 10.11 105.62 9.64L105.62 9.64L105.62 9.64Q105.46 9.17 105.46 8.30L105.46 8.30L105.46 1.55L107.35 1.55L107.35 8.48ZM113.58 3.12L113.58 3.12L113.58 3.12Q114.14 3.12 114.80 3.29L114.80 3.29L114.80 3.29Q115.46 3.46 116.03 3.88L116.03 3.88L116.03 3.88Q116.61 4.30 116.99 5.03L116.99 5.03L116.99 5.03Q117.38 5.75 117.38 6.89L117.38 6.89L117.38 6.89Q117.38 8.02 116.99 8.75L116.99 8.75L116.99 8.75Q116.61 9.48 116.03 9.90L116.03 9.90L116.03 9.90Q115.46 10.32 114.80 10.49L114.80 10.49L114.80 10.49Q114.14 10.65 113.58 10.65L113.58 10.65L113.58 10.65Q113.02 10.65 112.36 10.49L112.36 10.49L112.36 10.49Q111.71 10.32 111.14 9.90L111.14 9.90L111.14 9.90Q110.57 9.48 110.19 8.75L110.19 8.75L110.19 8.75Q109.82 8.02 109.82 6.89L109.82 6.89L109.82 6.89Q109.82 5.75 110.19 5.03L110.19 5.03L110.19 5.03Q110.57 4.30 111.14 3.88L111.14 3.88L111.14 3.88Q111.71 3.46 112.36 3.29L112.36 3.29L112.36 3.29Q113.02 3.12 113.58 3.12ZM113.58 9.25L113.58 9.25L113.58 9.25Q114.37 9.25 114.89 8.64L114.89 8.64L114.89 8.64Q115.42 8.02 115.42 6.89L115.42 6.89L115.42 6.89Q115.42 5.75 114.89 5.14L114.89 5.14L114.89 5.14Q114.37 4.54 113.58 4.54L113.58 4.54L113.58 4.54Q112.83 4.54 112.31 5.14L112.31 5.14L112.31 5.14Q111.79 5.75 111.79 6.89L111.79 6.89L111.79 6.89Q111.79 7.45 111.93 7.89L111.93 7.89L111.93 7.89Q112.07 8.33 112.31 8.63L112.31 8.63L112.31 8.63Q112.55 8.93 112.88 9.09L112.88 9.09L112.88 9.09Q113.20 9.25 113.58 9.25ZM124.00 3.29L125.47 3.29L125.47 9.63L125.47 9.63Q125.47 10.32 125.25 10.93L125.25 10.93L125.25 10.93Q125.03 11.54 124.57 12.01L124.57 12.01L124.57 12.01Q124.10 12.47 123.37 12.76L123.37 12.76L123.37 12.76Q122.64 13.05 121.62 13.06L121.62 13.06L121.62 13.06Q121.07 13.06 120.62 12.98L120.62 12.98L120.62 12.98Q120.18 12.91 119.85 12.81L119.85 12.81L119.85 12.81Q119.48 12.70 119.17 12.54L119.17 12.54L119.31 11.05L119.31 11.05Q119.62 11.20 119.98 11.33L119.98 11.33L119.98 11.33Q120.30 11.44 120.72 11.52L120.72 11.52L120.72 11.52Q121.13 11.59 121.62 11.59L121.62 11.59L121.62 11.59Q122.21 11.59 122.58 11.43L122.58 11.43L122.58 11.43Q122.95 11.27 123.17 11.03L123.17 11.03L123.17 11.03Q123.38 10.78 123.48 10.50L123.48 10.50L123.48 10.50Q123.58 10.22 123.60 9.97L123.60 9.97L123.60 9.97Q123.62 9.73 123.61 9.56L123.61 9.56L123.61 9.56Q123.59 9.39 123.59 9.39L123.59 9.39L123.59 9.39Q123.59 9.39 123.48 9.56L123.48 9.56L123.48 9.56Q123.37 9.73 123.12 9.94L123.12 9.94L123.12 9.94Q122.86 10.15 122.46 10.32L122.46 10.32L122.46 10.32Q122.05 10.50 121.46 10.50L121.46 10.50L121.46 10.50Q120.83 10.50 120.27 10.31L120.27 10.31L120.27 10.31Q119.71 10.12 119.29 9.68L119.29 9.68L119.29 9.68Q118.87 9.24 118.63 8.53L118.63 8.53L118.63 8.53Q118.38 7.81 118.38 6.78L118.38 6.78L118.38 6.78Q118.38 5.74 118.69 5.04L118.69 5.04L118.69 5.04Q119.00 4.34 119.46 3.91L119.46 3.91L119.46 3.91Q119.92 3.49 120.46 3.30L120.46 3.30L120.46 3.30Q121.00 3.12 121.46 3.12L121.46 3.12L121.46 3.12Q122.01 3.12 122.42 3.28L122.42 3.28L122.42 3.28Q122.82 3.44 123.08 3.64L123.08 3.64L123.08 3.64Q123.34 3.84 123.47 4.00L123.47 4.00L123.47 4.00Q123.61 4.16 123.61 4.16L123.61 4.16L124.00 3.29ZM123.59 6.82L123.59 6.82L123.59 6.82Q123.59 5.68 123.14 5.13L123.14 5.13L123.14 5.13Q122.70 4.58 121.97 4.58L121.97 4.58L121.97 4.58Q121.24 4.58 120.79 5.13L120.79 5.13L120.79 5.13Q120.34 5.68 120.34 6.82L120.34 6.82L120.34 6.82Q120.34 7.95 120.79 8.50L120.79 8.50L120.79 8.50Q121.24 9.04 121.97 9.04L121.97 9.04L121.97 9.04Q122.70 9.04 123.14 8.50L123.14 8.50L123.14 8.50Q123.59 7.95 123.59 6.82ZM132.02 3.29L134.08 3.29L131.36 10.32L131.36 10.32Q131.35 10.35 131.26 10.56L131.26 10.56L131.26 10.56Q131.18 10.78 131.00 11.09L131.00 11.09L131.00 11.09Q130.82 11.40 130.54 11.74L130.54 11.74L130.54 11.74Q130.26 12.08 129.86 12.38L129.86 12.38L129.86 12.38Q129.46 12.67 128.93 12.87L128.93 12.87L128.93 12.87Q128.41 13.06 127.75 13.06L127.75 13.06L127.75 11.45L127.75 11.45Q128.16 11.45 128.45 11.28L128.45 11.28L128.45 11.28Q128.74 11.10 128.94 10.89L128.94 10.89L128.94 10.89Q129.16 10.64 129.32 10.32L129.32 10.32L126.59 3.29L128.66 3.29L130.42 8.54L132.02 3.29Z"></path></g><defs data-v-fde0c5aa=""><linearGradient data-v-fde0c5aa="" gradientTransform="rotate(25)" id="61c7da78-016a-440a-ac9d-1de069726bba" x1="0%" y1="0%" x2="100%" y2="0%"><stop data-v-fde0c5aa="" offset="0%" stop-color="#000A68" stop-opacity="1"></stop><stop data-v-fde0c5aa="" offset="100%" stop-color="#00C4EE" stop-opacity="1"></stop></linearGradient></defs><g data-v-fde0c5aa="" id="39af632b-e6e8-41e6-8057-05cfdf44b57f" stroke="none" fill="url(#61c7da78-016a-440a-ac9d-1de069726bba)" transform="matrix(0.2660178157312265,0,0,0.2660178157312265,40.00001040347682,136.69910819866124)"><path d="M34.096 87.131c.733 3.924 1.772 7.68 3.125 11.215A50.1 50.1 0 0 0 50.001 100c5.802 0 11.368-.999 16.548-2.816-7.291-1.649-12.67-3.692-17.502-5.533-4.974-1.895-9.419-3.585-14.951-4.52zM16.133 86.771a49.907 49.907 0 0 0 18.341 10.756c-1.199-3.428-2.121-7.026-2.791-10.745-4.277-.516-9.25-.593-15.55-.011zM31.297 84.459a92.021 92.021 0 0 1-.78-7.052c-12.685-2.49-22.74-7.078-28.392-12.974A49.958 49.958 0 0 0 14.02 84.698c7.016-.759 12.567-.755 17.277-.239zM26.386 62.896a17.51 17.51 0 0 0 3.967 1.49C31.544 36.795 41.811 8.892 50.14.004 50.093.003 50.049 0 50.001 0 35.055 0 21.646 6.568 12.483 16.967c-4.66 12.985-.443 38.453 13.903 45.929z"></path><path d="M30.372 75.027a113.018 113.018 0 0 1-.097-8.323 19.67 19.67 0 0 1-4.943-1.783C11.51 57.719 6.447 36.023 8.99 21.413A49.748 49.748 0 0 0 0 50c0 2.982.276 5.898.777 8.738C4.521 66.052 15.61 72 30.372 75.027zM32.713 64.798c10.769 1.151 28.922-6.379 55.191-47.383C79.42 7.554 67.164 1.044 53.369.126c-8.057 5.661-19.431 35.552-20.656 64.672zM45.622 79.277a113.964 113.964 0 0 1-12.724-1.432c.179 2.346.442 4.656.796 6.926 6.188.946 10.987 2.772 16.163 4.744 5.467 2.082 11.645 4.428 20.527 6.137 12.652-5.658 22.519-16.418 26.988-29.668-11.552 11.229-34.163 14.31-51.75 13.293z"></path><path d="M32.64 67.068c-.066 2.826-.034 5.639.11 8.414 4.106.735 8.462 1.254 13.003 1.517 18.884 1.091 43.675-2.563 53.067-16.218A50.106 50.106 0 0 0 100 50c0-11.591-3.957-22.251-10.576-30.732C62.98 60.32 44.125 68.164 32.64 67.068z"></path></g><!----></svg>