<svg xmlns="http://www.w3.org/2000/svg" width="247" height="85.323" viewBox="0 0 247 85.323">
 <g transform="matrix(1.3333 0 0 -1.3333 -80.369 150.11)">
  <g>
   <path d="m95.214 111.94h-0.03858c-8.832-4e-3 -15.999-2.0764-21.305-6.1598-4.5146-3.473-7.5675-8.3374-8.8269-14.068-1.202-5.4696-0.21261-9.6593 1.208-12.59-2.5968-3.0435-4.2608-6.1795-4.9518-9.331-1.0142-4.6123 0.02401-9.1415 2.926-12.749 4.1091-5.1104 11.359-7.5941 22.166-7.5941 6.7719 0.0034 12.944 1.532 18.014 4.4426 4.0842-3.4147 9.391-3.8279 11.709-3.8279l18.364 0.0094c2.5462 0.0017 4.9244 0.57783 7.0942 1.7155 3.4215-1.8286 7.2108-2.2487 9.9688-2.2487l9.2658 0.0043 0.49038 2.3988 1.1085 5.4251 0.18604 0.90961c1.8869-0.65327 3.8862-1.0073 5.8203-1.0073l0.79215 8.57e-4h0.12517c0.38236-0.68756 0.82559-1.3417 1.3306-1.9547 4.1117-5.011 10.731-5.7586 14.309-5.7586l9.319 0.0051 0.47924 2.415 0.15174 0.76644c4.17-2.1784 9.4056-3.2792 15.632-3.2792 6.6639 0.0034 12.439 1.2174 17.228 3.6161 0.0137 0.0069 0.042 0.02229 0.042 0.02229h8.5834l3e-3 6.9116c2.4708 3.1395 4.1571 6.8996 4.9638 11.133l2.8257 14.846c1.6349 8.5877-1.2611 14.303-3.9779 17.588-4.5703 5.5202-11.95 8.3202-21.934 8.3202-7.7098-4e-3 -14.172-1.6178-19.275-4.8035-2.3199 2.0738-6.297 4.1314-13.99 4.1314l-5.792-3e-3 -2.9303-4.0122-0.46552-0.63956c-0.69099-0.94733-2.0121-2.7605-3.6307-4.9836-2.3619 5.81-8.0733 9.6276-14.63 9.6276-0.10459 0-0.20832-8.6e-4 -0.31206-3e-3l-13.429-7e-3v-2e-3l-34.484-0.018-0.25548-1.2037c-4.5703 1.6958-9.673 1.9555-13.876 1.9555" fill="#d3d2d2"/>
   <path d="m241.25 86.555c1.4163 7.4423-1.0365 12.326-3.3418 15.113-3.9736 4.8001-10.575 7.2331-19.623 7.2331h-0.0231c-8.2353-4e-3 -14.852-1.959-19.704-5.7817-0.12002 0.16631-0.23147 0.33778-0.36435 0.49724-3.3607 4.0885-8.8054 4.6132-13.173 4.6132h-0.0266l-4.2394-3e-3 -2.0327-2.7828-0.46637-0.63869c-1.1445-1.5706-4.0216-5.5211-7.1174-9.7768l-1.3331 4.3509c-1.6006 5.2785-6.519 8.838-12.233 8.838-0.0943 0-0.18775-8.6e-4 -0.28205-3e-3l-11.051-6e-3 -8.6e-4 -2e-3 -34.461-0.0189-0.54354-2.5659c-4.572 2.8686-10.774 3.3169-16.018 3.3169h-0.03858c-8.1539-4e-3 -14.705-1.8664-19.476-5.5365-3.9479-3.0375-6.6193-7.3026-7.7252-12.334-1.2877-5.8597 0.33264-9.9277 1.9495-12.331l-0.91218-1.0176c-2.5479-2.8403-4.1571-5.7234-4.7804-8.5714-0.81616-3.7079 0.012-7.342 2.3319-10.227 3.5038-4.356 9.9894-6.4736 19.828-6.4736 7.294 0.0034 13.654 1.9144 18.454 5.2716 0.0206-0.02572 0.0369-0.05487 0.0574-0.07973 3.3495-4.1314 8.9555-4.5772 11.211-4.5772l18.362 0.0094c2.7914 0.0017 5.1704 0.8676 7.1114 2.2333 3.2664-2.3602 7.4629-2.7665 9.9534-2.7665l6.8156 0.0034 1.1085 5.4242 0.95505 4.6663c2.6088-1.682 5.5777-2.3636 7.9919-2.3636l0.79044 8.57e-4 2.0584 8.57e-4c0.38408-1.0974 0.96019-2.1304 1.7172-3.052 3.3289-4.0559 8.9418-4.6621 11.99-4.6621l6.8559 0.0034 1.0262 5.1756c4.0414-3.4884 9.9662-5.2716 17.7-5.2716 15.395 0.0077 25.544 7.0222 27.871 19.244zm-9.685-31.883v1.9272h0.70042v0.41494h-1.8955v-0.41494h0.70299v-1.9272zm0.97991 2.3422h0.71157l0.42522-1.8406 0.4218 1.8406h0.70385v-2.3422h-0.45609v1.5843c0 0.04544 8.6e-4 0.10974 2e-3 0.19118 2e-3 0.0823 2e-3 0.14489 2e-3 0.19032l-0.44408-1.9658h-0.47324l-0.44066 1.9658c0-0.04544 0-0.10802 2e-3 -0.19032 2e-3 -0.08145 2e-3 -0.14574 2e-3 -0.19118v-1.5843h-0.45523v2.3422"/>
   <path d="m109.26 98.47c1.0442-1.2903 1.3914-2.9217 1.0065-4.7169-0.36865-1.7232-1.394-3.6067-3.13-5.7637l-3.4618-3.8596 0.7973 5.4894c0.25891 1.2071-0.0926 1.8184-0.37808 2.1724-0.69613 0.85988-2.9191 2.3027-9.9885 2.2993-2.5359-8.57e-4 -8.5285-0.43637-9.403-4.4349-0.17746-0.81187-8.57e-4 -1.1899 0.14574-1.4043 0.88818-1.2834 4.3329-1.7875 7.6652-2.277 3.6444-0.53496 7.6404-1.1188 10.598-2.8891l0.0506-0.02915c1.1034-0.66785 2.0601-1.502 2.7966-2.5625 1.4694-2.1141 1.8518-4.8807 1.1376-8.2199-1.7206-8.0373-9.6413-13.034-20.672-13.04-5.197-0.0026-11.946 0.67813-14.571 3.9411-1.0185 1.2671-1.364 2.8308-0.99191 4.5197 0.37036 1.688 1.448 3.5373 3.2038 5.4937l3.9462 4.3989-1.2671-5.7723c-0.26491-1.2114 0.08916-1.8304 0.37893-2.1904 0.71757-0.8916 3.0186-2.3885 10.361-2.3842 5.3531 0.0026 8.8372 1.9358 9.5616 5.3016 0.24348 1.1368-0.01372 1.6846-0.22804 1.9975-1.0725 1.5629-4.8147 2.1459-8.4334 2.7108-5.0753 0.7913-10.323 1.6092-12.798 5.2305-1.2808 1.8724-1.6109 4.272-0.98334 7.1294 1.2577 5.7191 5.8469 12.536 20.574 12.543 7.5709 3e-3 12.047-1.1659 14.082-3.6839zm16.049-4.7409-1.6392-7.7621 11.061 6e-3c3.9316 0.0026 5.3222 0.67813 5.3359 0.68414l2.8771 1.4454-0.61126-3.13c-0.89504-4.3046-3.593-6.6776-7.5992-6.6802l-12.684-6e-3 -2.2693-10.754 21.318 0.01114-0.38579-1.8724c-0.41323-2.0095-2.2504-5.81-6.237-5.8117l-18.356-0.0094c-0.71242-8.57e-4 -4.3474 0.09773-5.9437 2.0653-0.66356 0.81788-0.89246 1.8252-0.6627 2.9114l7.7638 36.579 30.847 0.0163-0.38751-1.8732c-0.41665-2.0078-2.2522-5.8091-6.2164-5.8109zm67.644 5.5777c0.64985-0.79044 0.88303-1.7643 0.67385-2.818l-7.372-37.145-1.2774-8.57e-4c-0.82816 0-5.0436 0.10288-6.7513 2.1827-0.64641 0.78701-0.8796 1.7481-0.6747 2.776l3.8588 19.332-12.208-16.578h-0.78615c-0.19633-8.57e-4 -4.8318 0.04287-6.6913 3.9899l-0.0797 0.20318-3.8425 12.451-4.9818-24.374h-1.2697c-0.82816-8.58e-4 -5.0461 0.10202-6.7428 2.1836-0.64555 0.79216-0.87445 1.7523-0.66356 2.7837l7.6301 37.133 5.6051 3e-3c2.2213 0.0677 5.0256-1.0296 5.9386-4.0379l5.3162-17.345c4.2394 5.8357 12.895 17.73 15.103 20.759l0.46723 0.63784 0.79045 8.6e-4c2.8866 2e-3 6.399-0.24005 7.9576-2.1364zm31.952-11.61-2.5736-13.432c-0.79473-4.1528-2.1047-7.3292-10.93-7.3343-3.7173-0.0017-6.0912 0.58983-7.0557 1.7601-0.75101 0.91389-0.8676 2.4459-0.37293 4.9716l2.6217 13.432c0.94904 4.8652 2.8694 7.3352 10.728 7.3394 3.7936 0.0026 6.2121-0.59755 7.1903-1.7798 0.75272-0.90961 0.8736-2.4391 0.39265-4.957zm7.7767 9.6439c-2.6259 3.1712-7.4783 4.7778-14.418 4.7735-15.193-8e-3 -19.846-7.4646-21.074-13.718l-2.9157-14.845c-0.76472-3.8999-0.14403-7.1037 1.8475-9.5222 2.6131-3.1746 7.4775-4.7821 14.458-4.7787 11.975 0.0069 19.496 4.8815 21.181 13.727l2.8266 14.846c0.74072 3.8948 0.0995 7.096-1.9041 9.517" fill="#ce1126"/>
   <path d="m98.378 72.215c-0.2752-1.208-0.85731-2.265-1.6692-3.1789 1.9435 1.1385 3.1858 2.7888 3.6479 4.8129 2.4313 10.658-25.758 1.8895-22.222 17.063 0.61384 2.6337 1.7926 4.7066 3.3872 6.3252-2.6037-1.7678-4.5206-4.332-5.3659-7.9601-3.5356-15.173 24.653-6.4033 22.222-17.062zm7.5692 16.752c0.9842 1.2011 1.6786 2.2736 2.1699 3.2544-0.12517 4.1091-6.0775 5.0641-11.922 5.0607-4.2471-0.0026-7.9456-1.0073-9.8325-3.3349 2.0267 1.1608 4.7898 1.6992 7.8547 1.7009 6.4178 0.0034 12.992-1.1351 11.804-6.3544-0.024-0.10974-0.0497-0.21776-0.0746-0.32664zm-17.884-26.542c-7.3583-0.0043-15.163 1.4043-13.96 6.5704 0.13546 0.57868 0.41237 1.2302 0.79987 1.9264-0.0043 0.38493 0.02486 0.78701 0.12774 1.2268-1.6838-1.8492-2.6019-3.4807-2.9054-4.7872-1.2028-5.1662 6.6013-6.5747 13.959-6.5704 6.4015 0.0034 12.063 1.7669 15.655 5.2879-3.5381-2.4339-8.3536-3.6513-13.677-3.6539zm55.532 34.503-17.47-0.0094-0.36521-1.6323 15.857 0.0077c1.6889 8.57e-4 2.8154 0.93018 3.5484 1.9504-0.46124-0.19204-0.97819-0.31549-1.5697-0.31635zm-7.4612-33.878-18.359-0.01029-5.6042 0.11145s0.34121 2.0138 0.55983 2.986l7.5778 33.713-1.6109-8.57e-4 -7.9456-35.346c-0.69614-3.1 5.0444-3.0975 5.0444-3.0975l18.36 0.0094c1.6958 8.57e-4 2.8291 0.9319 3.5664 1.9538-0.46638-0.19461-0.98934-0.31892-1.5886-0.31892zm0.48524 18.433-13.948-0.0069-0.36436-1.634 12.333 0.0069c2.3413 0.0017 3.791 0.96705 4.7221 2.1981-0.74757-0.34978-1.6478-0.56325-2.7434-0.56411zm10.745-15.871 7.474 34.258-1.6435-0.0017-7.8075-35.89c-0.67556-3.1009 5.8434-3.0975 5.8434-3.0975l0.37636 1.7429c-1.3494 0.15774-4.7564 0.2349-4.7564 0.2349s0.38494 2.1613 0.51353 2.7528zm17.558 7.7312-5.6943 19.191s-0.11316-2.7185-0.63098-5.1121l-0.13288-0.61469 4.4794-15.098c1.4248-3.0992 5.2476-3.0975 5.2476-3.0975l1.2688 1.6958c-1.1728 0.16203-3.4944 0.76729-4.5378 3.0357zm20.464 14.093c0.50582 2.3928 1.5895 5.275 1.5895 5.275l-2.6268-3.5124c-0.32492-1.0005-0.69871-2.2504-0.94133-3.3967l-4.6055-21.807c-0.65499-3.1 5.864-3.0966 5.864-3.0966l0.37036 1.7609c-1.1325 0.13888-4.6646 0.36607-4.6646 0.36607s0.22976 1.7566 0.40808 2.6037m-10.872 12.609c2.3533 3.1943 11.827 16.087 15.923 21.642-0.26834 0.0034-0.50924 0.0043-0.69442 0.0043-2.2659-3.0572-11.188-15.127-15.449-20.898zm42.344-15.799c-11.782-6e-3 -16.255 4.6672-14.639 12.443l3.0838 14.846c0.60098 2.8943 1.8647 5.3573 3.8125 7.312-3.0898-2.1347-5.0058-5.1713-5.7903-8.946l-3.0838-14.846c-1.6152-7.775 2.8574-12.449 14.639-12.443 7.4166 0.0034 12.714 1.8621 16.015 5.1747-3.3006-2.2787-7.9507-3.5373-14.037-3.5407zm14.172 24.962c1.0896 5.3848 0.0163 8.592-9.0146 8.5868-3.7036-0.0026-6.2644-0.57183-8.0844-1.6203 1.7772 2.0876 4.7512 3.2518 10.062 3.2544 9.0309 0.0051 10.104-3.2029 9.0155-8.586l-2.7202-13.432c-0.63012-3.1112-1.7018-5.4902-4.2386-6.9502 1.1805 1.388 1.8278 3.1772 2.2607 5.3162l2.7194 13.432" fill="#fff"/>
  </g>
 </g>
</svg>