<?xml version="1.0" encoding="utf-8"?>
<!-- Generator: Adobe Illustrator 22.0.1, SVG Export Plug-In . SVG Version: 6.00 Build 0)  -->
<svg version="1.1" id="Layer_1" xmlns="http://www.w3.org/2000/svg" xmlns:xlink="http://www.w3.org/1999/xlink" x="0px" y="0px"
	 width="250.1px" height="86px" viewBox="0 0 250.1 86" enable-background="new 0 0 250.1 86" xml:space="preserve">
<g>
	<rect x="61.7" y="0.62" fill="#6F263D" width="128.14" height="61.15"/>
	<path fill="#A2AAAD" d="M190.42,62.34H61.14V0.05h129.28V62.34z M62.27,61.2h127.01V1.19H62.27V61.2z M184.47,56.06H66.92V6.33
		h117.55V56.06z M67.49,55.49H183.9V6.9H67.49V55.49z"/>
	<path fill="#FFFFFF" d="M88.33,15.68h-8.57c-1.93,0-2.46,0.78-3.66,2.2c-1.57,1.83-2.61,4.02-4.23,5.95l-0.68-0.37l2.19-9.72
		c1.46,0.42,2.98,0.84,4.54,0.84h26.01c1.57,0,3.08-0.42,4.55-0.84l1.93,9.77l-0.73,0.37c-1.31-1.99-2.35-4.18-3.92-6.01
		c-1.2-1.41-1.72-2.2-3.66-2.2H93.6V46.6c0,2.24,1.05,2.76,4.86,2.92v1.1H83.58v-1.1c3.61-0.16,4.75-0.68,4.75-2.92V15.68z
		 M115.23,50.62h0.63l1.98-1.93c2.67,1.72,5.75,2.66,8.93,2.66c6.69,0,12.43-2.87,12.43-10.29c0-7-5.85-9.35-11.54-11.08
		c-3.66-1.1-7.1-2.19-7.1-6.74c0-4.75,2.72-8.04,7.62-8.04c2.35,0,4.23,1.15,5.75,2.87c1.82,2.04,2.61,5.75,3.34,8.36h0.94V15.73
		h-0.73l-1.56,1.36c-2.19-1.98-5.48-2.98-8.41-2.98c-6.16,0-11.18,4.13-11.18,10.5c0,6.9,3.61,8.72,9.61,10.71
		c3.92,1.46,8.72,2.09,8.72,7.37c0,2.61-1.46,7.57-8.41,7.57c-6.53,0-9.3-5.01-9.98-10.55h-1.05V50.62z M146.21,15.68
		c3.39,0.16,3.76,0.58,3.76,4.02v19.53c0,6.48,3.08,12.12,13.69,12.12c10.91,0,13.68-5.44,13.68-12.69V19.7
		c0-2.93,1.67-4.02,4.44-4.02v-1.1H170.5v1.1c3.61,0.21,5.43,0.42,5.43,4.02v18.96c0,6.11-1.98,11.6-10.65,11.6
		c-8.67,0-10.03-5.9-10.03-9.61V19.7c0-2.82,0.68-4.07,4.6-4.02v-1.1h-13.64V15.68z"/>
	<g>
		<path fill="#6F263D" d="M2.78,72.99h0.77h0.61h0.65l0.5,0.04l0.74-0.02L7,73.03c0.06,0,0.2,0,0.41-0.02
			c0.5-0.03,1.08-0.05,1.73-0.06c0.6-0.02,1.01-0.1,1.24-0.24c0.14-0.09,0.29-0.24,0.43-0.46c0.09-0.14,0.16-0.2,0.24-0.2
			c0.3,0,0.45,0.09,0.45,0.27c0,0.06-0.01,0.12-0.03,0.19c-0.09,0.5-0.16,0.97-0.21,1.41c-0.07,0.4-0.12,0.88-0.16,1.44
			c-0.01,0.17-0.06,0.27-0.16,0.3c-0.05,0.01-0.1,0.02-0.15,0.02c-0.27,0-0.41-0.07-0.41-0.22v-0.09c0.01-0.09,0.02-0.17,0.02-0.23
			c0-0.56-0.09-0.93-0.26-1.11c-0.13-0.15-0.42-0.23-0.86-0.26c-0.12-0.01-0.65-0.02-1.59-0.02c-0.14,0-0.28,0-0.41-0.01H6.99
			c-0.14,0-0.25,0.01-0.32,0.04c-0.04,0.02-0.06,0.07-0.06,0.17c0,0.34,0.01,0.67,0.03,0.99c0.01,0.13,0.01,0.21,0.01,0.23
			l-0.01,0.51V76l-0.02,0.61l0.02,0.28l-0.02,1.11l0.03,1.57v1.32l0.02,1.09l-0.02,0.77c0,0.98,0.1,1.58,0.31,1.79
			c0.13,0.15,0.35,0.24,0.66,0.29c0.08,0.02,0.28,0.04,0.62,0.07c0.17,0.01,0.29,0.04,0.36,0.07c0.09,0.03,0.13,0.11,0.13,0.24
			c0,0.19-0.1,0.29-0.3,0.29c-0.27,0-0.83-0.02-1.66-0.05c-0.15,0-0.34-0.01-0.57-0.01c-0.42,0-1.12,0.04-2.11,0.12
			c-0.3,0.02-0.52,0.04-0.67,0.04c-0.14,0-0.24-0.01-0.31-0.03c-0.12-0.02-0.17-0.12-0.17-0.3c0-0.18,0.16-0.27,0.48-0.29
			c0.78-0.05,1.26-0.24,1.45-0.58c0.13-0.23,0.19-0.71,0.19-1.45l-0.02-0.78l0.04-1.47c0-0.04-0.01-0.28-0.03-0.72
			C5.02,79.19,5,78.37,5,77.52l-0.02-1.04L5,75.14c0-0.66-0.02-1.08-0.07-1.27c-0.02-0.05-0.16-0.08-0.44-0.09l-0.35-0.02
			l-0.61,0.01c-1.01-0.01-1.64,0.06-1.88,0.23C1.28,74.16,1,74.61,0.8,75.36c-0.06,0.3-0.16,0.45-0.31,0.45
			c-0.29,0-0.44-0.09-0.44-0.27c0-0.06,0.01-0.13,0.03-0.22c0.03-0.13,0.06-0.48,0.11-1.04c0.04-0.57,0.06-0.97,0.06-1.2
			c0-0.07,0-0.15-0.01-0.24c-0.01-0.14-0.01-0.25-0.01-0.33c0-0.21,0.12-0.32,0.36-0.32c0.11,0,0.2,0.03,0.27,0.08
			c0.05,0.03,0.13,0.14,0.25,0.31c0.18,0.27,0.42,0.4,0.69,0.4h0.66L2.78,72.99z"/>
		<path fill="#6F263D" d="M20.6,83.27c0.06,0,0.12,0.02,0.2,0.05c0.06,0.03,0.09,0.08,0.09,0.14c0,0.03-0.04,0.19-0.13,0.48
			l-0.12,0.51l-0.17,0.55c-0.06,0.21-0.11,0.34-0.13,0.38c-0.04,0.07-0.11,0.1-0.22,0.1h-0.57h-0.83c-0.16,0-0.48,0-0.97-0.01
			c-0.16,0-0.54-0.01-1.15-0.01c-0.32,0-0.64-0.01-0.98-0.01c-0.25,0-0.42-0.01-0.53-0.01c-0.13,0-0.38,0.01-0.76,0.02
			c-0.5,0.01-0.93,0.04-1.28,0.06c-0.29,0.02-0.52,0.04-0.67,0.04c-0.13,0-0.21-0.02-0.24-0.06c-0.02-0.02-0.03-0.07-0.03-0.15
			c0-0.08,0-0.14,0.01-0.19c0.03-0.07,0.14-0.11,0.36-0.11c0.62-0.03,1-0.16,1.14-0.4c0.15-0.27,0.22-0.64,0.2-1.13
			c0-0.12,0-0.4,0.02-0.81c0-0.14,0.01-0.23,0.01-0.27l-0.02-0.99l0.02-0.68v-0.39l0.02-0.63v-1.4l0.02-1.43
			c0-0.54-0.08-0.91-0.23-1.11c-0.16-0.22-0.54-0.33-1.13-0.33c-0.17,0-0.27-0.03-0.31-0.09c-0.02-0.03-0.03-0.08-0.03-0.14
			c0-0.11,0.01-0.18,0.05-0.22c0.03-0.03,0.09-0.05,0.19-0.05c0.17,0,0.51,0.02,1.03,0.04L14,75.01l0.46,0.02l0.76-0.02h0.62
			L16.58,75c0.03,0,0.16,0,0.39,0.01c1.05,0.01,1.97,0.02,2.76,0.04c0.08,0,0.13,0.01,0.16,0.03c0.03,0.02,0.04,0.06,0.05,0.13
			c0,0.04,0.01,0.1,0.01,0.2c0,0.26,0,0.5-0.01,0.74v0.58v0.32c0,0.14-0.07,0.21-0.22,0.21c-0.11,0-0.2-0.03-0.24-0.1
			c-0.02-0.03-0.04-0.16-0.06-0.38c-0.04-0.6-0.2-0.95-0.48-1.05c-0.14-0.07-0.5-0.12-1.1-0.16c-0.24-0.02-0.55-0.03-0.94-0.03
			l-0.53-0.03c-0.15,0-0.35,0.02-0.6,0.08c-0.3,0.06-0.47,0.3-0.51,0.73c0,0.08-0.02,0.29-0.04,0.63v0.33l-0.02,0.38l0.02,0.65
			l-0.02,1.16c0,0.14,0.01,0.22,0.04,0.24c0.04,0.04,0.22,0.06,0.54,0.06l1.04-0.02c0.6,0,0.98-0.06,1.14-0.15
			c0.15-0.09,0.3-0.38,0.45-0.87c0.04-0.14,0.1-0.21,0.18-0.21c0.19,0,0.29,0.04,0.29,0.13c0,0.09,0,0.21-0.01,0.36
			c-0.01,0.12-0.01,0.37-0.01,0.76c-0.02,0.5-0.03,0.8-0.03,0.9c0,0.11,0,0.21,0,0.3c0.01,0.26,0.01,0.44,0.01,0.53
			c0,0.13-0.08,0.2-0.23,0.2c-0.11,0-0.17-0.03-0.2-0.08c-0.03-0.05-0.04-0.13-0.06-0.26c-0.06-0.43-0.12-0.7-0.2-0.83
			c-0.04-0.08-0.1-0.13-0.17-0.16c-0.08-0.03-0.21-0.05-0.42-0.07l-0.79-0.05l-0.55,0l-0.33-0.01c-0.35,0.02-0.54,0.03-0.57,0.04
			c-0.04,0.01-0.06,0.02-0.07,0.05c-0.01,0.03-0.01,0.13-0.01,0.29c0,0.21-0.02,0.72-0.03,1.53v0.68l-0.01,0.45
			c0,0.77,0.12,1.25,0.37,1.45c0.11,0.09,0.3,0.15,0.58,0.18c0.03,0.01,0.2,0.02,0.49,0.05l0.64,0.01l0.4,0.01
			c0.1,0,0.37-0.02,0.8-0.05c0.43-0.03,0.67-0.05,0.72-0.06c0.22-0.04,0.38-0.12,0.48-0.23c0.21-0.24,0.44-0.62,0.67-1.14
			C20.42,83.35,20.51,83.27,20.6,83.27"/>
		<path fill="#6F263D" d="M29.7,75.11h0.43c0.2,0,0.44-0.01,0.72-0.03c0.11-0.01,0.21-0.01,0.29-0.01c0.26,0,0.44,0.01,0.55,0.03
			c0.11,0.03,0.16,0.11,0.16,0.25c0,0.11-0.05,0.18-0.16,0.2c-0.03,0-0.14,0.01-0.34,0.02c-0.51,0.05-0.89,0.16-1.13,0.34
			c-0.17,0.12-0.48,0.5-0.95,1.12c-0.29,0.4-0.48,0.65-0.55,0.75c-0.31,0.39-0.53,0.69-0.65,0.89c-0.01,0.01-0.13,0.17-0.36,0.47
			c-0.3,0.39-0.45,0.62-0.45,0.71c0,0.08,0.42,0.69,1.27,1.82c0.09,0.11,0.28,0.39,0.58,0.85c0.14,0.22,0.43,0.63,0.87,1.22
			c0.4,0.56,0.75,0.92,1.05,1.08c0.21,0.12,0.45,0.17,0.73,0.15c0.2-0.01,0.32,0.03,0.36,0.11c0.02,0.04,0.02,0.09,0.02,0.16
			c0,0.13-0.03,0.2-0.1,0.22c-0.04,0.01-0.1,0.02-0.18,0.02c-0.01,0-0.42-0.01-1.23-0.02c-0.54-0.01-0.88-0.02-1.03-0.02
			c-0.21,0-0.44,0.01-0.71,0.02c-0.28,0.01-0.47,0.02-0.57,0.02c-0.3,0-0.52-0.01-0.65-0.02c-0.12-0.02-0.17-0.09-0.17-0.21
			c0-0.16,0.06-0.24,0.18-0.26c0.03,0,0.14-0.01,0.34-0.01c0.28-0.03,0.46-0.05,0.53-0.06c0.2-0.04,0.3-0.15,0.3-0.33
			c0-0.11-0.06-0.26-0.19-0.45c-0.03-0.06-0.21-0.3-0.53-0.72c-0.09-0.12-0.27-0.37-0.53-0.75c-0.51-0.75-0.84-1.21-1-1.39
			c-0.08-0.09-0.12-0.14-0.14-0.17c-0.03-0.05-0.06-0.07-0.09-0.07c-0.03,0-0.09,0.05-0.16,0.16c-0.13,0.19-0.31,0.43-0.55,0.71
			l-0.37,0.49c-0.91,1.2-1.37,1.94-1.37,2.23c0,0.24,0.19,0.37,0.58,0.37l0.4-0.02c0.19,0,0.28,0.1,0.28,0.3
			c0,0.15-0.08,0.22-0.23,0.22l-0.17-0.01l-0.51-0.01c-0.43-0.03-0.7-0.04-0.78-0.04c-0.27,0-0.73,0.03-1.4,0.1
			c-0.12,0.01-0.32,0.02-0.59,0.02c-0.18,0-0.26-0.07-0.26-0.22c0-0.16,0.06-0.25,0.19-0.27c0.03,0,0.15-0.02,0.37-0.05
			c0.35-0.04,0.66-0.14,0.9-0.31c0.22-0.15,0.43-0.38,0.65-0.68c0.13-0.18,0.53-0.71,1.21-1.61c0.38-0.51,0.76-1.01,1.13-1.5
			c0.22-0.3,0.33-0.46,0.33-0.48c0-0.03-0.09-0.17-0.28-0.41c-0.14-0.18-0.3-0.4-0.48-0.66c-0.13-0.18-0.32-0.44-0.57-0.77
			c-0.08-0.13-0.18-0.27-0.32-0.44c-0.05-0.06-0.23-0.31-0.54-0.75c-0.17-0.25-0.4-0.55-0.7-0.91c-0.11-0.14-0.17-0.22-0.18-0.23
			c-0.23-0.29-0.4-0.48-0.51-0.55c-0.18-0.12-0.39-0.18-0.63-0.2c-0.25-0.02-0.4-0.03-0.44-0.05c-0.07-0.03-0.1-0.08-0.1-0.16
			c0-0.16,0.04-0.26,0.13-0.28c0.07-0.02,0.33-0.03,0.77-0.03c0.24,0,0.58,0.01,1.04,0.03c0.32,0.02,0.56,0.02,0.72,0.02
			c0.1,0,0.24,0,0.43-0.01c0.41-0.02,0.62-0.03,0.64-0.02h0.39c0.08-0.01,0.13-0.01,0.16-0.01c0.05,0,0.1,0.01,0.14,0.02
			c0.07,0.02,0.11,0.13,0.11,0.3c0,0.1-0.06,0.16-0.19,0.18c-0.04,0.01-0.16,0.01-0.36,0.02l-0.27,0.02
			c-0.19,0.02-0.3,0.03-0.34,0.04c-0.12,0.03-0.18,0.1-0.18,0.2c0,0.13,0.13,0.37,0.4,0.73l0.29,0.39l0.2,0.26l0.13,0.19
			c0.23,0.3,0.4,0.52,0.49,0.67c0.09,0.14,0.21,0.32,0.36,0.52c0.18,0.24,0.33,0.45,0.45,0.62c0.04,0.05,0.06,0.08,0.08,0.08
			c0.05,0,0.28-0.28,0.7-0.83l0.32-0.39l0.44-0.65c0.38-0.56,0.6-0.88,0.65-0.97c0.12-0.21,0.17-0.38,0.17-0.49
			c0-0.16-0.09-0.27-0.27-0.34c-0.08-0.02-0.28-0.04-0.58-0.06c-0.09,0-0.14-0.02-0.17-0.07c-0.01-0.02-0.02-0.08-0.02-0.17
			c0-0.13,0.05-0.2,0.16-0.22c0.06-0.02,0.18-0.02,0.36-0.02C28.79,75.05,29.15,75.08,29.7,75.11"/>
		<path fill="#6F263D" d="M42.8,85.49h-0.22c-0.08,0-0.27-0.01-0.55-0.02c-0.37-0.01-0.79-0.02-1.25-0.02l-1.31,0.06h-0.19
			c-0.13,0-0.21-0.03-0.23-0.09c-0.02-0.03-0.02-0.1-0.02-0.2c0-0.17,0.06-0.25,0.17-0.25h0.23c0.52,0,0.78-0.12,0.78-0.38
			c0-0.09-0.05-0.31-0.15-0.66l-0.19-0.46l-0.21-0.53l-0.23-0.58c-0.18-0.51-0.3-0.82-0.34-0.91c-0.04-0.07-0.11-0.11-0.21-0.11
			c-0.06,0-0.24,0-0.53-0.01c-0.23-0.01-0.42-0.01-0.58-0.01l-1.42,0.01c-0.39,0-0.62,0-0.69,0.01c-0.07,0.01-0.11,0.02-0.13,0.05
			c-0.01,0.03-0.22,0.69-0.62,2c-0.16,0.52-0.23,0.84-0.23,0.97c0,0.27,0.12,0.44,0.37,0.51c0.21,0.06,0.41,0.09,0.6,0.09
			c0.13,0,0.2,0.01,0.23,0.04c0.02,0.02,0.03,0.06,0.03,0.14c0,0.18-0.03,0.29-0.08,0.33c-0.03,0.01-0.18,0.02-0.47,0.02
			c-0.06,0-0.17-0.01-0.31-0.02c-0.41-0.03-0.72-0.04-0.93-0.04c-0.33,0-0.62,0.01-0.86,0.03c-0.21,0.02-0.34,0.03-0.37,0.03
			c-0.33,0-0.53-0.02-0.6-0.06c-0.05-0.03-0.08-0.09-0.08-0.2c0-0.21,0.07-0.32,0.2-0.32c0.01,0,0.06,0.01,0.14,0.04h0.1
			c0.4,0,0.69-0.1,0.86-0.29c0.13-0.15,0.4-0.81,0.8-1.97c0.2-0.53,0.55-1.55,1.04-3.05l0.35-1.05l0.31-0.9
			c0.43-1.45,0.69-2.24,0.79-2.39c0.13-0.14,0.35-0.32,0.65-0.52c0.11-0.08,0.17-0.11,0.2-0.11c0.08,0,0.16,0.1,0.24,0.3
			c0.25,0.58,0.45,1.1,0.61,1.55c0.04,0.11,0.44,1.1,1.18,2.97c0.47,1.13,0.85,2.06,1.12,2.79c0.36,0.98,0.6,1.59,0.71,1.83
			c0.19,0.4,0.38,0.66,0.58,0.78c0.11,0.06,0.28,0.1,0.51,0.11c0.2,0.01,0.31,0.03,0.35,0.05c0.05,0.04,0.08,0.1,0.08,0.2
			c0,0.05,0,0.1-0.01,0.14C42.99,85.45,42.92,85.49,42.8,85.49 M37.1,76.6c-0.03,0-0.06,0.04-0.09,0.11
			c-0.05,0.13-0.16,0.48-0.33,1.03l-0.29,0.87l-0.12,0.39c-0.18,0.53-0.31,0.93-0.38,1.2c-0.05,0.17-0.08,0.27-0.11,0.31
			c-0.02,0.04-0.03,0.07-0.03,0.08c0,0.09,0.07,0.14,0.21,0.14l0.52-0.02c0.07,0,0.2,0,0.42,0.01c0.08,0.01,0.15,0.01,0.22,0.01
			c0.09,0,0.24,0,0.47-0.01c0.14-0.01,0.27-0.01,0.36-0.01c0.1,0,0.28,0.01,0.52,0.02h0.07c0.12,0,0.18-0.03,0.18-0.08
			c0-0.01-0.01-0.03-0.02-0.06c-0.03-0.05-0.06-0.16-0.11-0.34c-0.21-0.54-0.42-1.09-0.65-1.66l-0.33-0.77l-0.31-0.81
			C37.18,76.74,37.11,76.6,37.1,76.6"/>
		<path fill="#6F263D" d="M47.25,74.82c0.56,0,0.97,0.03,1.25,0.11c0.47,0.12,0.75,0.22,0.84,0.3c0.03,0.03,0.06,0.23,0.1,0.62
			l0.02,0.33l0.02,0.3l0.03,0.35c0.01,0.11,0.02,0.19,0.02,0.24c0,0.13-0.07,0.2-0.22,0.2c-0.14,0-0.24-0.06-0.29-0.17
			c-0.02-0.03-0.07-0.19-0.15-0.48c-0.13-0.43-0.36-0.75-0.68-0.96c-0.34-0.22-0.7-0.32-1.07-0.32c-0.48,0-0.91,0.16-1.28,0.47
			c-0.38,0.32-0.57,0.74-0.57,1.23c0,0.51,0.2,0.96,0.6,1.34c0.18,0.17,0.43,0.35,0.75,0.53c0.16,0.09,0.53,0.28,1.1,0.56
			c0.77,0.38,1.33,0.77,1.67,1.16c0.47,0.53,0.7,1.14,0.7,1.83c0,0.67-0.11,1.19-0.34,1.58c-0.23,0.39-0.52,0.71-0.89,0.93
			c-0.45,0.29-0.82,0.48-1.11,0.56c-0.36,0.11-0.75,0.17-1.17,0.17c-0.64,0-1.26-0.11-1.88-0.33c-0.23-0.08-0.38-0.15-0.47-0.21
			c-0.06-0.04-0.09-0.11-0.1-0.23c-0.04-0.39-0.09-0.79-0.15-1.21c-0.03-0.2-0.05-0.32-0.05-0.38c0-0.14,0.1-0.2,0.3-0.2
			c0.08,0,0.13,0.04,0.17,0.11c0.03,0.05,0.07,0.17,0.14,0.36c0.12,0.36,0.34,0.68,0.65,0.96c0.41,0.37,0.91,0.55,1.51,0.55
			c0.54,0,0.98-0.16,1.31-0.48c0.46-0.43,0.7-0.94,0.7-1.51c0-0.4-0.09-0.74-0.26-1.01c-0.16-0.25-0.36-0.48-0.62-0.68
			c-0.22-0.18-0.41-0.31-0.57-0.39l-0.74-0.39c-0.82-0.49-1.3-0.79-1.46-0.89c-0.15-0.1-0.29-0.21-0.41-0.33
			c-0.41-0.41-0.62-0.94-0.62-1.59c0-0.75,0.14-1.31,0.43-1.7c0.25-0.34,0.52-0.61,0.8-0.79c0.33-0.22,0.73-0.38,1.21-0.49
			C46.71,74.85,46.96,74.82,47.25,74.82"/>
		<path fill="#6F263D" d="M59.99,72.7c0.67,0,1.17,0.04,1.5,0.13c0.56,0.14,0.9,0.27,1.01,0.36c0.03,0.03,0.07,0.28,0.12,0.74
			l0.02,0.4l0.03,0.36l0.03,0.42c0.01,0.13,0.02,0.22,0.02,0.28c0,0.16-0.09,0.23-0.26,0.23c-0.17,0-0.28-0.07-0.34-0.2
			c-0.02-0.04-0.08-0.23-0.18-0.57c-0.16-0.51-0.43-0.9-0.82-1.15c-0.41-0.26-0.83-0.39-1.28-0.39c-0.57,0-1.08,0.19-1.52,0.57
			c-0.45,0.39-0.68,0.88-0.68,1.48c0,0.61,0.24,1.15,0.72,1.61c0.21,0.21,0.51,0.42,0.9,0.64c0.19,0.11,0.63,0.33,1.32,0.67
			c0.93,0.45,1.59,0.92,2,1.39c0.56,0.64,0.83,1.37,0.83,2.2c0,0.8-0.14,1.44-0.41,1.9c-0.27,0.47-0.63,0.85-1.06,1.12
			c-0.54,0.34-0.98,0.57-1.33,0.67c-0.44,0.13-0.9,0.2-1.4,0.2c-0.76,0-1.51-0.13-2.25-0.39c-0.27-0.1-0.46-0.18-0.56-0.25
			c-0.07-0.04-0.11-0.13-0.12-0.27c-0.05-0.46-0.11-0.95-0.18-1.45c-0.04-0.24-0.06-0.39-0.06-0.45c0-0.16,0.12-0.25,0.36-0.25
			c0.09,0,0.16,0.05,0.21,0.14c0.03,0.06,0.09,0.21,0.16,0.44c0.14,0.44,0.4,0.82,0.77,1.15c0.49,0.44,1.09,0.66,1.82,0.66
			c0.65,0,1.17-0.19,1.57-0.57c0.56-0.52,0.83-1.13,0.83-1.82c0-0.48-0.1-0.89-0.31-1.22c-0.19-0.3-0.43-0.58-0.74-0.82
			c-0.27-0.21-0.49-0.37-0.68-0.47l-0.89-0.47c-0.98-0.59-1.56-0.94-1.74-1.06c-0.19-0.12-0.35-0.25-0.49-0.39
			c-0.49-0.49-0.74-1.13-0.74-1.91c0-0.9,0.17-1.58,0.52-2.04c0.3-0.41,0.63-0.73,0.97-0.95c0.39-0.26,0.88-0.45,1.46-0.58
			C59.34,72.73,59.64,72.7,59.99,72.7"/>
		<path fill="#6F263D" d="M71.07,74.77c0.52,0,1.05,0.08,1.6,0.23c0.54,0.15,1.04,0.36,1.48,0.63c0.69,0.42,1.3,1.03,1.83,1.85
			c0.31,0.48,0.53,1.04,0.67,1.7c0.07,0.32,0.11,0.6,0.11,0.85c0,0.86-0.26,1.74-0.77,2.63c-0.19,0.34-0.45,0.7-0.78,1.08
			c-0.33,0.37-0.64,0.67-0.92,0.87c-0.42,0.3-0.94,0.57-1.57,0.81c-0.68,0.25-1.35,0.38-2.03,0.38c-0.68,0-1.26-0.08-1.74-0.25
			c-0.36-0.12-0.74-0.3-1.11-0.51c-0.38-0.22-0.68-0.43-0.89-0.63c-0.71-0.67-1.2-1.32-1.47-1.94c-0.26-0.58-0.39-1.18-0.39-1.81
			c0-0.71,0.12-1.41,0.36-2.12c0.1-0.29,0.27-0.64,0.52-1.03c0.25-0.39,0.52-0.73,0.8-1.01c0.6-0.62,1.31-1.06,2.11-1.34
			C69.61,74.89,70.34,74.77,71.07,74.77 M70.66,75.31c-0.55,0-1.12,0.14-1.71,0.42c-0.39,0.19-0.75,0.44-1.07,0.75
			c-0.31,0.32-0.56,0.67-0.74,1.05c-0.24,0.5-0.37,1.01-0.4,1.51c-0.01,0.19-0.02,0.41-0.02,0.66c0,0.72,0.08,1.38,0.23,1.96
			c0.21,0.82,0.67,1.58,1.36,2.28c0.3,0.31,0.58,0.53,0.82,0.68c0.29,0.17,0.68,0.32,1.18,0.44c0.22,0.06,0.46,0.08,0.72,0.08
			c0.62,0,1.27-0.17,1.96-0.5c0.31-0.15,0.56-0.31,0.76-0.48c0.19-0.17,0.39-0.42,0.59-0.73c0.56-0.85,0.83-1.77,0.83-2.75
			c0-1.44-0.42-2.71-1.25-3.81c-0.28-0.37-0.66-0.7-1.15-1C72.11,75.5,71.41,75.31,70.66,75.31"/>
		<path fill="#6F263D" d="M78.08,75c0.12,0,0.27,0.01,0.46,0.03c0.64,0.07,1.15,0.11,1.51,0.11c0.28,0,0.68-0.02,1.21-0.07
			c0.17-0.01,0.29-0.02,0.37-0.02c0.26,0,0.42,0.01,0.5,0.02c0.11,0.02,0.16,0.11,0.16,0.26c0,0.15-0.14,0.23-0.44,0.23
			c-0.57,0.02-0.93,0.16-1.1,0.43c-0.06,0.1-0.09,0.21-0.1,0.36c-0.01,0.18-0.02,0.8-0.04,1.87l0.04,1.02v1.46
			c0.05,1.27,0.09,1.98,0.11,2.12c0.14,0.72,0.45,1.25,0.94,1.59c0.54,0.37,1.22,0.55,2.02,0.55c0.58,0,1.12-0.09,1.64-0.26
			c0.52-0.17,0.94-0.54,1.27-1.11c0.34-0.57,0.51-1.44,0.51-2.6l-0.02-1.55l0.02-1.54c-0.02-1.05-0.03-1.65-0.05-1.82
			c-0.03-0.2-0.11-0.33-0.25-0.4c-0.18-0.07-0.46-0.13-0.85-0.16c-0.18-0.02-0.27-0.1-0.27-0.24c0-0.16,0.12-0.24,0.36-0.24
			c0.05,0,0.19,0,0.43,0.01c0.42,0.02,0.81,0.03,1.17,0.03c0.18,0,0.49-0.01,0.94-0.03c0.11,0,0.27-0.01,0.46-0.01
			c0.11,0,0.19,0.02,0.23,0.05c0.05,0.02,0.07,0.09,0.07,0.2c0,0.12-0.04,0.2-0.11,0.23c-0.06,0.03-0.2,0.05-0.4,0.05
			c-0.57-0.01-0.9,0.12-0.98,0.4c-0.06,0.17-0.08,0.78-0.08,1.84v1.65l-0.01,0.69c0,1.37-0.04,2.26-0.12,2.67
			c-0.22,1.12-0.72,1.9-1.5,2.34c-0.8,0.45-1.69,0.67-2.67,0.67c-0.93,0-1.73-0.15-2.39-0.46c-0.51-0.24-0.88-0.48-1.09-0.73
			c-0.37-0.43-0.6-0.88-0.7-1.37c-0.06-0.27-0.08-0.63-0.08-1.09c0-0.08,0.01-0.45,0.04-1.14l-0.02-1.18l0.02-0.98l-0.02-1.08
			c0-1.02-0.03-1.62-0.09-1.82c-0.12-0.26-0.38-0.42-0.77-0.47c-0.31-0.04-0.49-0.07-0.53-0.08c-0.09-0.03-0.14-0.11-0.14-0.22
			C77.75,75.08,77.86,75,78.08,75"/>
		<path fill="#6F263D" d="M92.34,75.08h0.65h0.51h0.54l0.42,0.02l0.61-0.02l0.78,0.02c0.05,0,0.16,0,0.34-0.01
			c0.42-0.02,0.9-0.04,1.44-0.05c0.5-0.02,0.84-0.08,1.03-0.2c0.12-0.07,0.24-0.2,0.36-0.38c0.07-0.11,0.14-0.17,0.2-0.17
			c0.25,0,0.37,0.07,0.37,0.22c0,0.05-0.01,0.1-0.02,0.16c-0.07,0.41-0.13,0.8-0.17,1.17c-0.06,0.33-0.1,0.73-0.13,1.2
			c-0.01,0.14-0.05,0.22-0.14,0.25c-0.04,0.01-0.08,0.01-0.12,0.01c-0.23,0-0.34-0.06-0.34-0.18v-0.07
			c0.01-0.08,0.02-0.14,0.02-0.19c0-0.47-0.07-0.78-0.21-0.93c-0.11-0.12-0.35-0.2-0.72-0.22c-0.1-0.01-0.54-0.02-1.32-0.02
			c-0.12,0-0.23,0-0.34-0.01h-0.23c-0.12,0-0.2,0.01-0.26,0.03c-0.04,0.02-0.05,0.06-0.05,0.14c0,0.28,0,0.56,0.01,0.82
			c0,0.11,0,0.18,0,0.19l0,0.43v0.29l-0.01,0.51v0.24v0.92l0.02,1.31v1.1l0.02,0.91v0.64c0,0.82,0.09,1.32,0.26,1.5
			c0.11,0.12,0.3,0.2,0.55,0.24c0.07,0.01,0.24,0.03,0.52,0.06c0.14,0.01,0.24,0.03,0.3,0.06c0.07,0.03,0.11,0.09,0.11,0.2
			c0,0.16-0.08,0.24-0.25,0.24c-0.23,0-0.69-0.02-1.39-0.05c-0.13,0-0.28-0.01-0.48-0.01c-0.35,0-0.94,0.03-1.76,0.1
			c-0.25,0.02-0.43,0.03-0.56,0.03c-0.12,0-0.2-0.01-0.26-0.02c-0.1-0.02-0.14-0.11-0.14-0.25c0-0.15,0.13-0.23,0.4-0.24
			c0.65-0.04,1.06-0.2,1.22-0.48c0.11-0.19,0.16-0.59,0.16-1.21l-0.02-0.65l0.02-1.23c0-0.03-0.01-0.23-0.02-0.6
			c-0.01-0.66-0.02-1.35-0.02-2.06l-0.02-0.86v-1.12c0-0.55-0.02-0.9-0.06-1.06c-0.01-0.04-0.14-0.07-0.36-0.08l-0.3-0.01
			l-0.51,0.01c-0.84-0.01-1.36,0.05-1.57,0.19c-0.3,0.13-0.54,0.51-0.7,1.13c-0.05,0.25-0.14,0.37-0.26,0.37
			c-0.25,0-0.37-0.08-0.37-0.23c0-0.05,0.01-0.11,0.02-0.18c0.03-0.11,0.06-0.39,0.09-0.86c0.04-0.47,0.06-0.8,0.06-1
			c0-0.06,0-0.12-0.01-0.2c-0.01-0.11-0.01-0.21-0.01-0.27c0-0.18,0.1-0.27,0.3-0.27c0.09,0,0.17,0.02,0.23,0.07
			c0.04,0.03,0.11,0.11,0.2,0.26c0.15,0.22,0.34,0.33,0.58,0.33h0.55L92.34,75.08z"/>
		<path fill="#6F263D" d="M100.46,75.04c0.03,0,0.29,0.01,0.81,0.03l0.8,0.02l0.43,0.03l0.55-0.04l0.54,0.02
			c0.03,0,0.28-0.02,0.75-0.06h0.09c0.16,0,0.24,0.08,0.24,0.24c0,0.15-0.04,0.24-0.12,0.27c-0.06,0.02-0.17,0.03-0.33,0.04
			c-0.5,0.02-0.82,0.09-0.98,0.22c-0.11,0.12-0.16,0.39-0.16,0.8l-0.02,0.5l0.02,0.61l-0.02,0.5l0.02,0.53l-0.02,0.58
			c0,0.1,0.04,0.16,0.11,0.18c0.14,0.04,0.61,0.07,1.43,0.1l1.28-0.04l1.39,0.04c0.14,0,0.35,0,0.62-0.01
			c0.54-0.02,0.82-0.02,0.83-0.02c0.4,0.01,0.62-0.02,0.67-0.08c0.05-0.06,0.08-0.31,0.08-0.76v-1.08l0.02-0.63
			c0-0.53-0.05-0.89-0.16-1.09c-0.1-0.18-0.27-0.28-0.51-0.31c-0.08-0.01-0.22-0.02-0.42-0.04c-0.25-0.01-0.38-0.1-0.38-0.25
			c0-0.14,0.05-0.22,0.16-0.24c0.06-0.02,0.15-0.02,0.26-0.02c0.03,0,0.14,0,0.34,0c0.31,0.01,0.64,0.02,0.97,0.03
			c0.36,0.01,0.66,0.02,0.92,0.02c0.25,0,0.48-0.01,0.7-0.02c0.23-0.02,0.43-0.03,0.6-0.04h0.11c0.14,0,0.21,0.08,0.21,0.25
			c0,0.08-0.02,0.14-0.05,0.18c-0.05,0.07-0.2,0.09-0.44,0.08c-0.39-0.01-0.65,0.04-0.79,0.16c-0.14,0.12-0.21,0.35-0.21,0.68v0.9
			c0,0.15,0,0.34-0.01,0.57c-0.02,0.64-0.03,1.02-0.03,1.14l0.02,1.22c0,0.08-0.01,0.37-0.03,0.88c-0.02,0.34-0.02,0.63-0.02,0.86
			c0,0.14,0,0.26,0.01,0.38c0.01,0.17,0.01,0.26,0.01,0.26l-0.02,0.57c0,0.77,0.08,1.25,0.23,1.45c0.16,0.2,0.49,0.3,0.98,0.31
			c0.15,0,0.24,0.01,0.29,0.05c0.04,0.02,0.06,0.08,0.06,0.16c0,0.22-0.1,0.33-0.29,0.33c-0.03,0-0.14,0-0.34-0.01
			c-0.69-0.03-1.14-0.05-1.36-0.05c-0.56,0-1.12,0.01-1.67,0.04c-0.22,0.01-0.39,0.02-0.51,0.02c-0.12,0-0.18-0.06-0.18-0.18
			c0-0.11,0-0.18,0.02-0.22c0.02-0.09,0.12-0.13,0.28-0.13c0.39,0,0.67-0.03,0.84-0.11c0.17-0.08,0.28-0.21,0.31-0.39
			c0.05-0.24,0.07-0.49,0.07-0.74l-0.02-0.89c0-0.03,0-0.12,0.02-0.27c0.02-0.22,0.02-0.36,0.02-0.44c0-0.78-0.01-1.37-0.04-1.77
			c-0.01-0.1-0.08-0.14-0.22-0.14c-0.66,0-1.12,0.01-1.38,0.02c-0.33,0.01-0.56,0.02-0.7,0.02l-1.21-0.04l-0.71,0.04
			c-0.48-0.01-0.79-0.02-0.93-0.02c-0.62,0-1,0.02-1.14,0.07c-0.03,0.02-0.06,0.06-0.06,0.14c0,0.01-0.01,0.24-0.02,0.7l0.02,0.81
			L103.02,83l0.02,0.59c0,0.52,0.02,0.86,0.07,1.02c0.07,0.19,0.25,0.31,0.54,0.36c0.2,0.03,0.39,0.05,0.58,0.05
			c0.22,0,0.33,0.08,0.33,0.24c0,0.11-0.01,0.17-0.04,0.21c-0.03,0.04-0.09,0.06-0.17,0.06l-0.17-0.02h-0.18
			c-0.49-0.03-0.84-0.04-1.04-0.04c-0.33,0-0.97,0.02-1.92,0.05c-0.21,0-0.34,0.01-0.42,0.01c-0.13,0-0.22-0.02-0.29-0.05
			c-0.06-0.03-0.09-0.11-0.09-0.24c0-0.15,0.11-0.23,0.33-0.24c0.34-0.01,0.58-0.04,0.73-0.1c0.27-0.11,0.41-0.45,0.41-1.05
			c0-0.06-0.01-0.16-0.02-0.29v-0.27c0-0.24,0.01-0.49,0.02-0.74c0.02-0.43,0.03-0.7,0.03-0.82l-0.02-0.81l0.02-0.52l-0.04-1.01
			l0.04-0.79l-0.04-0.6l0.02-0.45c-0.03-0.61-0.06-1-0.08-1.17c-0.03-0.3-0.14-0.52-0.34-0.64c-0.18-0.11-0.43-0.17-0.76-0.19
			c-0.14,0-0.23-0.01-0.27-0.02c-0.05-0.03-0.08-0.11-0.08-0.25c0-0.13,0.04-0.21,0.13-0.23C100.37,75.04,100.41,75.04,100.46,75.04
			"/>
		<path fill="#6F263D" d="M121.8,83.27c0.06,0,0.12,0.02,0.2,0.05c0.06,0.03,0.09,0.08,0.09,0.14c0,0.03-0.04,0.19-0.13,0.48
			l-0.12,0.51l-0.17,0.55c-0.06,0.21-0.11,0.34-0.13,0.38c-0.03,0.07-0.11,0.1-0.22,0.1h-0.57h-0.83c-0.16,0-0.49,0-0.97-0.01
			c-0.16,0-0.54-0.01-1.15-0.01c-0.32,0-0.64-0.01-0.98-0.01c-0.25,0-0.43-0.01-0.53-0.01c-0.13,0-0.38,0.01-0.76,0.02
			c-0.5,0.01-0.93,0.04-1.27,0.06c-0.29,0.02-0.52,0.04-0.67,0.04c-0.13,0-0.21-0.02-0.24-0.06c-0.02-0.02-0.03-0.07-0.03-0.15
			c0-0.08,0-0.14,0.01-0.19c0.03-0.07,0.14-0.11,0.36-0.11c0.62-0.03,1-0.16,1.14-0.4c0.15-0.27,0.22-0.64,0.2-1.13
			c0-0.12,0-0.4,0.01-0.81c0-0.14,0.01-0.23,0.01-0.27l-0.02-0.99l0.02-0.68v-0.39l0.02-0.63v-1.4l0.02-1.43
			c0-0.54-0.08-0.91-0.23-1.11c-0.17-0.22-0.54-0.33-1.13-0.33c-0.16,0-0.27-0.03-0.31-0.09c-0.02-0.03-0.03-0.08-0.03-0.14
			c0-0.11,0.01-0.18,0.04-0.22c0.03-0.03,0.09-0.05,0.19-0.05c0.17,0,0.51,0.02,1.03,0.04l0.55,0.01l0.46,0.02l0.76-0.02h0.61
			l0.74-0.02c0.04,0,0.17,0,0.39,0.01c1.05,0.01,1.98,0.02,2.77,0.04c0.08,0,0.13,0.01,0.16,0.03c0.03,0.02,0.04,0.06,0.05,0.13
			c0,0.04,0.01,0.1,0.01,0.2c0,0.26,0,0.5-0.01,0.74v0.58v0.32c0,0.14-0.07,0.21-0.22,0.21c-0.12,0-0.2-0.03-0.24-0.1
			c-0.02-0.03-0.04-0.16-0.06-0.38c-0.04-0.6-0.2-0.95-0.48-1.05c-0.14-0.07-0.5-0.12-1.1-0.16c-0.24-0.02-0.55-0.03-0.94-0.03
			l-0.53-0.03c-0.15,0-0.35,0.02-0.6,0.08c-0.3,0.06-0.47,0.3-0.51,0.73c-0.01,0.08-0.02,0.29-0.04,0.63v0.33l-0.02,0.38l0.02,0.65
			l-0.02,1.16c0,0.14,0.01,0.22,0.04,0.24c0.04,0.04,0.22,0.06,0.54,0.06l1.04-0.02c0.6,0,0.98-0.06,1.14-0.15
			c0.15-0.09,0.3-0.38,0.45-0.87c0.04-0.14,0.1-0.21,0.18-0.21c0.19,0,0.29,0.04,0.29,0.13c0,0.09,0,0.21-0.01,0.36
			c-0.01,0.12-0.01,0.37-0.01,0.76c-0.02,0.5-0.03,0.8-0.03,0.9c0,0.11,0,0.21,0.01,0.3c0.01,0.26,0.01,0.44,0.01,0.53
			c0,0.13-0.08,0.2-0.23,0.2c-0.11,0-0.17-0.03-0.2-0.08c-0.03-0.05-0.05-0.13-0.06-0.26c-0.06-0.43-0.12-0.7-0.2-0.83
			c-0.04-0.08-0.1-0.13-0.17-0.16c-0.08-0.03-0.21-0.05-0.42-0.07l-0.79-0.05l-0.55,0l-0.33-0.01c-0.35,0.02-0.54,0.03-0.57,0.04
			c-0.04,0.01-0.06,0.02-0.07,0.05c-0.01,0.03-0.01,0.13-0.01,0.29c-0.01,0.21-0.02,0.72-0.03,1.53v0.68l-0.01,0.45
			c0,0.77,0.12,1.25,0.37,1.45c0.11,0.09,0.3,0.15,0.58,0.18c0.03,0.01,0.2,0.02,0.49,0.05l0.64,0.01l0.39,0.01
			c0.1,0,0.37-0.02,0.8-0.05c0.43-0.03,0.67-0.05,0.72-0.06c0.22-0.04,0.38-0.12,0.48-0.23c0.21-0.24,0.44-0.62,0.67-1.14
			C121.62,83.35,121.71,83.27,121.8,83.27"/>
		<path fill="#6F263D" d="M132.28,85.47c-0.2,0-0.47,0.01-0.82,0.04c-0.25,0.02-0.44,0.03-0.56,0.03c-0.11,0-0.2-0.03-0.29-0.1
			c-0.27-0.22-0.72-0.84-1.35-1.84l-0.19-0.28l-0.64-1.15c-0.4-0.64-0.62-0.99-0.65-1.04c-0.42-0.64-0.92-0.97-1.53-0.97
			c-0.15,0-0.26,0.01-0.33,0.03c-0.05,0.01-0.08,0.06-0.08,0.14l0.02,0.51l-0.02,0.52l0.04,0.89l-0.02,0.57l0.02,0.9v0.61
			c0,0.31,0.11,0.51,0.34,0.6c0.19,0.07,0.41,0.11,0.67,0.11c0.22,0,0.35,0.01,0.4,0.03c0.06,0.02,0.1,0.07,0.1,0.15
			c0,0.16-0.04,0.24-0.13,0.26c-0.07,0.02-0.26,0.02-0.57,0.02c-0.15,0-0.36-0.01-0.64-0.03c-0.47-0.03-0.81-0.05-1.03-0.05
			c-0.16,0-0.6,0.03-1.33,0.07c-0.26,0.01-0.44,0.02-0.55,0.02c-0.08,0-0.13-0.01-0.17-0.02c-0.06-0.03-0.09-0.1-0.09-0.23
			c0-0.11,0.06-0.18,0.17-0.22c0.05-0.01,0.19-0.02,0.45-0.04c0.34-0.02,0.62-0.13,0.82-0.31c0.09-0.08,0.14-0.21,0.16-0.39
			l0.01-0.64l0.02-0.46v-0.58l0.02-0.89v-0.78v-0.51c0-0.03,0-0.13-0.01-0.3c-0.01-0.21-0.01-0.43-0.01-0.65
			c0-0.1,0.01-0.46,0.03-1.07l0.01-1.2l0.01-0.67c0-0.38-0.04-0.64-0.13-0.79c-0.11-0.19-0.42-0.28-0.94-0.27
			c-0.27,0-0.45-0.02-0.53-0.05c-0.07-0.03-0.11-0.08-0.11-0.16c0-0.12,0.02-0.2,0.05-0.23c0.04-0.04,0.11-0.06,0.21-0.06
			c0.02,0,0.06,0,0.13,0.01h0.55c0.48,0,1.03,0.01,1.64,0.02c0.13,0,0.32,0.01,0.57,0.01c0.25,0,0.55,0,0.92-0.01
			c0.09,0,0.18,0,0.29,0c0.94,0,1.69,0.19,2.22,0.57c0.37,0.26,0.68,0.61,0.9,1.07c0.16,0.31,0.23,0.61,0.23,0.9
			c0,0.5-0.19,0.97-0.57,1.4c-0.34,0.39-0.74,0.66-1.22,0.8c-0.34,0.11-0.51,0.18-0.51,0.2c0,0.01,0.02,0.03,0.05,0.06
			c0.26,0.22,0.49,0.47,0.69,0.74c0.2,0.27,0.49,0.72,0.86,1.34l0.42,0.64c0.37,0.62,0.74,1.16,1.11,1.61
			c0.25,0.29,0.48,0.47,0.71,0.55c0.08,0.03,0.21,0.05,0.41,0.08c0.17,0.02,0.28,0.05,0.35,0.08c0.06,0.03,0.09,0.09,0.09,0.2
			c0,0.14-0.06,0.2-0.19,0.2L132.28,85.47z M126.9,75.52c-0.32,0-0.55,0.02-0.69,0.07c-0.22,0.07-0.33,0.26-0.33,0.57v0.47v0.74
			v0.41v0.15v0.69l-0.04,0.67c0,0.19,0.02,0.3,0.05,0.34c0.03,0.03,0.13,0.05,0.27,0.05c1.06,0,1.77-0.12,2.12-0.35
			c0.17-0.12,0.33-0.28,0.46-0.46c0.11-0.14,0.2-0.33,0.27-0.56c0.08-0.23,0.11-0.43,0.11-0.62c0-0.37-0.09-0.72-0.26-1.03
			c-0.17-0.32-0.42-0.6-0.74-0.83C127.86,75.62,127.45,75.52,126.9,75.52"/>
		<path fill="#6F263D" d="M136.14,80.88v0.9v1.4c0,0.63,0.02,1.02,0.05,1.16c0.16,0.43,0.57,0.65,1.24,0.64
			c0.17,0.01,0.26,0.08,0.26,0.22c0,0.11-0.01,0.18-0.02,0.21c-0.03,0.05-0.18,0.07-0.45,0.07l-0.35,0.01
			c-0.38-0.03-0.76-0.04-1.15-0.04c-0.12,0-0.37,0.01-0.76,0.03c-0.09,0-0.22,0.01-0.42,0.01c-0.38,0-0.57-0.07-0.57-0.2
			c0-0.03,0.01-0.09,0.02-0.19c0.01-0.06,0.03-0.09,0.06-0.11c0.03-0.02,0.1-0.03,0.19-0.04c0.43-0.01,0.76-0.12,1-0.32
			c0.1-0.1,0.16-0.27,0.19-0.52c0-0.08,0.01-0.32,0.02-0.72l0.01-0.61v-0.93l0.02-0.86v-1.11c-0.01-0.49-0.02-0.79-0.02-0.91
			c0-0.26-0.01-0.71-0.03-1.36c-0.01-0.27-0.01-0.47-0.01-0.59c0-0.37-0.03-0.61-0.07-0.71c-0.06-0.12-0.28-0.32-0.66-0.59
			c-0.16-0.11-0.27-0.16-0.31-0.17c-0.08-0.04-0.21-0.06-0.4-0.07c-0.26-0.01-0.4-0.03-0.43-0.07c-0.03-0.04-0.05-0.12-0.05-0.25
			c0-0.12,0.07-0.18,0.22-0.19h0.33h0.14c0.2,0,0.68,0.01,1.46,0.04c0.42,0.02,0.74,0.03,0.93,0.04c0.08,0,0.14,0.01,0.16,0.02
			c0.02,0,0.07,0.05,0.16,0.16c0.01,0.02,0.09,0.11,0.24,0.28c0.15,0.17,0.46,0.53,0.93,1.08c0.29,0.34,0.57,0.67,0.85,0.98
			c0.2,0.22,0.41,0.47,0.62,0.74c0.71,0.9,1.42,1.73,2.12,2.5c0.31,0.35,0.78,0.91,1.42,1.68c0.39,0.45,0.61,0.68,0.64,0.68
			c0.08,0,0.11-0.07,0.11-0.2c0-0.03,0-0.08-0.01-0.15c-0.01-0.2-0.02-0.68-0.02-1.45l-0.03-1.45l0.02-0.86v-1.17l0.01-0.96
			c0-0.68-0.13-1.1-0.39-1.24c-0.19-0.1-0.45-0.15-0.8-0.15c-0.15,0-0.24-0.01-0.29-0.05c-0.05-0.03-0.08-0.11-0.08-0.23
			c0-0.1,0.02-0.16,0.05-0.19c0.05-0.04,0.13-0.05,0.25-0.05c0.24,0,0.64,0.01,1.18,0.04c0.2,0.01,0.73,0,1.58-0.02l0.4-0.01
			c0.15,0,0.24,0.02,0.27,0.06c0.03,0.04,0.05,0.12,0.05,0.24c0,0.13-0.07,0.2-0.2,0.22c-0.04,0.01-0.17,0.01-0.39,0.01
			c-0.39,0-0.65,0.08-0.79,0.23c-0.1,0.11-0.16,0.28-0.17,0.52c0,0.07-0.01,0.35-0.02,0.83c-0.01,0.51-0.01,0.88-0.02,1.12
			c-0.01,0.26-0.02,0.46-0.02,0.58l0.01,0.84c0,0.81,0.01,1.38,0.02,1.72c0.01,0.56,0.01,1.43,0.01,2.63c0,0.37,0.01,0.75,0.04,1.13
			c0.02,0.21,0.02,0.39,0.02,0.53c0,0.09-0.04,0.15-0.11,0.17c-0.05,0.01-0.09,0.01-0.14,0.01c-0.08,0-0.16-0.05-0.23-0.15
			c-0.22-0.32-0.41-0.58-0.59-0.77c-0.08-0.08-0.22-0.23-0.4-0.43c-0.1-0.11-0.2-0.22-0.3-0.33c-0.27-0.3-0.68-0.77-1.23-1.43
			c-0.7-0.77-1.25-1.39-1.65-1.87c-0.74-0.87-1.17-1.36-1.29-1.48c-0.53-0.56-0.94-1.01-1.24-1.36l-0.31-0.33l-0.51-0.62
			c-0.21-0.22-0.33-0.33-0.34-0.33c-0.06,0-0.08,0.06-0.08,0.17l0,0.15l0.01,0.97l0.03,1.29V80.88z"/>
		<path fill="#6F263D" d="M152,72.9c0.14,0,0.33,0.01,0.56,0.04c0.77,0.09,1.37,0.14,1.81,0.14c0.34,0,0.82-0.03,1.46-0.09
			c0.2-0.02,0.35-0.03,0.44-0.03c0.31,0,0.51,0.01,0.6,0.03c0.13,0.03,0.19,0.13,0.19,0.32c0,0.18-0.17,0.28-0.52,0.28
			c-0.67,0.02-1.11,0.19-1.31,0.51c-0.07,0.11-0.11,0.26-0.12,0.43c-0.01,0.21-0.03,0.96-0.05,2.25l0.04,1.23l-0.02,1.76
			c0.06,1.53,0.11,2.38,0.14,2.55c0.16,0.87,0.54,1.51,1.13,1.91c0.65,0.44,1.46,0.66,2.43,0.66c0.69,0,1.35-0.1,1.97-0.31
			c0.62-0.21,1.13-0.65,1.53-1.33c0.41-0.69,0.61-1.73,0.61-3.13l-0.02-1.86l0.02-1.85c-0.02-1.26-0.04-1.99-0.06-2.2
			c-0.04-0.24-0.14-0.4-0.3-0.48c-0.21-0.09-0.56-0.15-1.03-0.19c-0.22-0.02-0.32-0.12-0.32-0.29c0-0.19,0.14-0.29,0.43-0.29
			c0.06,0,0.23,0.01,0.52,0.02c0.51,0.03,0.98,0.04,1.4,0.04c0.21,0,0.59-0.01,1.13-0.05c0.14-0.01,0.32-0.01,0.55-0.01
			c0.13,0,0.23,0.02,0.28,0.05c0.06,0.03,0.08,0.11,0.08,0.25c0,0.14-0.04,0.24-0.14,0.28c-0.08,0.04-0.24,0.06-0.48,0.06
			c-0.68-0.01-1.07,0.15-1.17,0.48c-0.07,0.21-0.1,0.94-0.1,2.21v1.99l-0.01,0.83c0,1.65-0.05,2.72-0.15,3.2
			c-0.27,1.35-0.87,2.29-1.8,2.81c-0.96,0.54-2.03,0.81-3.2,0.81c-1.11,0-2.07-0.19-2.87-0.56c-0.61-0.28-1.05-0.58-1.31-0.88
			c-0.44-0.51-0.72-1.06-0.84-1.65c-0.07-0.32-0.1-0.76-0.1-1.31c0-0.09,0.01-0.55,0.04-1.37l-0.02-1.41l0.04-1.17l-0.02-1.29
			c-0.01-1.22-0.05-1.95-0.12-2.19c-0.15-0.32-0.45-0.52-0.93-0.58c-0.38-0.05-0.59-0.08-0.64-0.1c-0.11-0.04-0.16-0.13-0.16-0.26
			C151.6,72.99,151.74,72.9,152,72.9"/>
		<path fill="#6F263D" d="M169.24,80.88v0.9v1.4c0,0.63,0.02,1.02,0.05,1.16c0.15,0.43,0.57,0.65,1.24,0.64
			c0.17,0.01,0.26,0.08,0.26,0.22c0,0.11-0.01,0.18-0.02,0.21c-0.03,0.05-0.19,0.07-0.45,0.07l-0.35,0.01
			c-0.38-0.03-0.76-0.04-1.15-0.04c-0.11,0-0.37,0.01-0.76,0.03c-0.09,0-0.22,0.01-0.42,0.01c-0.38,0-0.57-0.07-0.57-0.2
			c0-0.03,0.01-0.09,0.02-0.19c0.01-0.06,0.03-0.09,0.06-0.11c0.03-0.02,0.1-0.03,0.19-0.04c0.43-0.01,0.76-0.12,1-0.32
			c0.1-0.1,0.16-0.27,0.19-0.52c0-0.08,0.01-0.32,0.02-0.72l0.01-0.61v-0.93l0.02-0.86v-1.11c-0.01-0.49-0.02-0.79-0.02-0.91
			c0-0.26-0.01-0.71-0.03-1.36c0-0.27-0.01-0.47-0.01-0.59c0-0.37-0.03-0.61-0.07-0.71c-0.06-0.12-0.28-0.32-0.66-0.59
			c-0.16-0.11-0.27-0.16-0.31-0.17c-0.08-0.04-0.21-0.06-0.4-0.07c-0.26-0.01-0.4-0.03-0.43-0.07c-0.03-0.04-0.05-0.12-0.05-0.25
			c0-0.12,0.07-0.18,0.22-0.19h0.33h0.14c0.2,0,0.68,0.01,1.46,0.04c0.43,0.02,0.74,0.03,0.93,0.04c0.08,0,0.14,0.01,0.16,0.02
			c0.02,0,0.07,0.05,0.16,0.16c0.01,0.02,0.09,0.11,0.24,0.28c0.15,0.17,0.46,0.53,0.92,1.08c0.29,0.34,0.57,0.67,0.86,0.98
			c0.2,0.22,0.41,0.47,0.62,0.74c0.71,0.9,1.42,1.73,2.12,2.5c0.31,0.35,0.78,0.91,1.42,1.68c0.39,0.45,0.61,0.68,0.64,0.68
			c0.08,0,0.11-0.07,0.11-0.2c0-0.03,0-0.08-0.01-0.15c-0.01-0.2-0.02-0.68-0.03-1.45l-0.03-1.45l0.02-0.86v-1.17l0.02-0.96
			c0-0.68-0.13-1.1-0.39-1.24c-0.19-0.1-0.45-0.15-0.8-0.15c-0.15,0-0.25-0.01-0.29-0.05c-0.05-0.03-0.08-0.11-0.08-0.23
			c0-0.1,0.02-0.16,0.05-0.19c0.05-0.04,0.13-0.05,0.25-0.05c0.24,0,0.64,0.01,1.18,0.04c0.2,0.01,0.73,0,1.58-0.02l0.39-0.01
			c0.15,0,0.24,0.02,0.27,0.06c0.03,0.04,0.05,0.12,0.05,0.24c0,0.13-0.07,0.2-0.2,0.22c-0.04,0.01-0.17,0.01-0.39,0.01
			c-0.39,0-0.65,0.08-0.79,0.23c-0.1,0.11-0.16,0.28-0.17,0.52c0,0.07-0.01,0.35-0.02,0.83c0,0.51-0.01,0.88-0.01,1.12
			c-0.01,0.26-0.02,0.46-0.02,0.58l0.01,0.84c0,0.81,0.01,1.38,0.02,1.72c0.01,0.56,0.02,1.43,0.02,2.63c0,0.37,0.01,0.75,0.03,1.13
			c0.02,0.21,0.02,0.39,0.02,0.53c0,0.09-0.04,0.15-0.11,0.17c-0.05,0.01-0.09,0.01-0.14,0.01c-0.08,0-0.16-0.05-0.23-0.15
			c-0.22-0.32-0.42-0.58-0.59-0.77c-0.08-0.08-0.22-0.23-0.4-0.43c-0.1-0.11-0.2-0.22-0.3-0.33c-0.27-0.3-0.68-0.77-1.23-1.43
			c-0.7-0.77-1.25-1.39-1.65-1.87c-0.74-0.87-1.17-1.36-1.29-1.48c-0.52-0.56-0.94-1.01-1.24-1.36l-0.31-0.33l-0.51-0.62
			c-0.21-0.22-0.32-0.33-0.34-0.33c-0.06,0-0.08,0.06-0.08,0.17l0.01,0.15l0.01,0.97l0.03,1.29V80.88z"/>
		<path fill="#6F263D" d="M180.38,75.08h0.07c0.38,0.04,0.94,0.06,1.69,0.06c0.39,0,0.83-0.02,1.32-0.06
			c0.31-0.02,0.57-0.03,0.79-0.03c0.18,0,0.27,0.07,0.27,0.21c0,0.1-0.02,0.17-0.05,0.2c-0.04,0.06-0.2,0.1-0.48,0.11
			c-0.35,0.01-0.58,0.06-0.69,0.13c-0.17,0.09-0.26,0.29-0.28,0.57l-0.02,1.09l-0.02,0.9l-0.01,1.19v0.36L183,80.8v1.59l0.02,0.52
			L183,83.63c0,0.56,0.08,0.93,0.23,1.1c0.11,0.13,0.27,0.2,0.49,0.24L184.1,85c0.19,0.03,0.3,0.05,0.32,0.05
			c0.07,0.02,0.11,0.12,0.11,0.29c0,0.12-0.06,0.18-0.18,0.18c-0.08,0-0.28-0.01-0.58-0.03c-0.4-0.03-0.88-0.05-1.46-0.05
			c-0.19,0-0.6,0.02-1.24,0.05c-0.33,0.02-0.56,0.02-0.7,0.02c-0.07,0-0.13-0.01-0.18-0.02c-0.07-0.02-0.11-0.12-0.11-0.29
			c0-0.15,0.14-0.22,0.42-0.22c0.46,0,0.76-0.06,0.88-0.17c0.11-0.09,0.17-0.27,0.2-0.54l0.04-0.65V83.1l0.02-0.9l-0.03-1.75v-1.31
			l-0.02-0.49l0.02-0.74l-0.02-0.95c0-0.45-0.01-0.72-0.03-0.82c-0.06-0.28-0.23-0.46-0.52-0.52c-0.14-0.03-0.34-0.04-0.6-0.05
			c-0.15,0-0.24-0.01-0.28-0.03c-0.05-0.02-0.08-0.07-0.08-0.15c0-0.15,0.02-0.24,0.07-0.28C180.17,75.09,180.25,75.08,180.38,75.08
			"/>
		<path fill="#6F263D" d="M188.95,75.06c0.18,0,0.27,0.1,0.27,0.3c0,0.14-0.15,0.21-0.44,0.21c-0.55,0-0.83,0.12-0.83,0.35
			c0,0.06,0.05,0.24,0.16,0.55l0.28,0.73l0.3,0.81c0.2,0.46,0.34,0.81,0.42,1.04l0.23,0.58l0.3,0.85c0.39,0.89,0.73,1.71,1.02,2.45
			c0.08,0.22,0.14,0.33,0.2,0.33c0.04,0,0.09-0.08,0.16-0.24c0.01-0.04,0.06-0.17,0.15-0.4l0.2-0.57l0.52-1.27l0.29-0.82
			c0.14-0.31,0.31-0.76,0.52-1.35c0.04-0.1,0.12-0.33,0.26-0.69c0.09-0.25,0.2-0.58,0.33-1c0.15-0.44,0.23-0.73,0.23-0.86
			c0-0.32-0.36-0.47-1.07-0.45c-0.21,0-0.32-0.08-0.32-0.26c0-0.2,0.08-0.29,0.23-0.29c0.1,0,0.2,0,0.33,0.02
			c0.57,0.04,1.11,0.06,1.61,0.06c0.3,0,0.55-0.01,0.74-0.03c0.15-0.02,0.26-0.02,0.34-0.02c0.12,0,0.19,0.09,0.19,0.26
			c0,0.11-0.03,0.19-0.09,0.21c-0.04,0.02-0.13,0.03-0.27,0.04c-0.22,0-0.41,0.07-0.57,0.2c-0.07,0.07-0.13,0.14-0.17,0.23
			c-0.04,0.08-0.11,0.25-0.2,0.5l-0.19,0.46l-0.27,0.74l-0.17,0.4l-0.15,0.36c-0.1,0.26-0.2,0.52-0.31,0.8
			c-0.11,0.3-0.22,0.56-0.31,0.77c-0.18,0.41-0.32,0.74-0.41,1c-0.07,0.17-0.18,0.45-0.34,0.84c-0.2,0.47-0.44,1.12-0.73,1.95
			c-0.17,0.48-0.33,0.91-0.48,1.31c-0.05,0.12-0.09,0.25-0.13,0.4c-0.05,0.17-0.14,0.26-0.26,0.26c-0.11,0-0.18-0.06-0.22-0.19
			c-0.12-0.36-0.29-0.8-0.51-1.3c-0.28-0.63-0.5-1.19-0.68-1.66c-0.03-0.09-0.14-0.35-0.33-0.79c-0.15-0.34-0.3-0.74-0.47-1.21
			l-0.11-0.28c-0.22-0.57-0.37-0.97-0.47-1.19c-0.16-0.36-0.34-0.82-0.56-1.37c-0.43-1.04-0.72-1.67-0.87-1.89
			c-0.11-0.16-0.27-0.25-0.47-0.29c-0.06,0-0.15-0.02-0.28-0.04c-0.2-0.02-0.31-0.04-0.34-0.07c-0.06-0.04-0.09-0.12-0.09-0.24
			c0-0.16,0.06-0.23,0.18-0.23c0.03,0,0.17,0.02,0.44,0.05c0.24,0.03,0.64,0.05,1.18,0.05c0.17,0,0.55-0.02,1.16-0.05
			c0.23-0.01,0.38-0.02,0.45-0.02c0.16,0,0.26-0.01,0.28-0.01C188.88,75.06,188.92,75.06,188.95,75.06"/>
		<path fill="#6F263D" d="M204.6,83.27c0.06,0,0.12,0.02,0.2,0.05c0.06,0.03,0.09,0.08,0.09,0.14c0,0.03-0.04,0.19-0.13,0.48
			l-0.12,0.51l-0.17,0.55c-0.07,0.21-0.11,0.34-0.13,0.38c-0.03,0.07-0.11,0.1-0.22,0.1h-0.57h-0.83c-0.16,0-0.48,0-0.97-0.01
			c-0.16,0-0.54-0.01-1.15-0.01c-0.32,0-0.64-0.01-0.98-0.01c-0.25,0-0.43-0.01-0.53-0.01c-0.13,0-0.38,0.01-0.76,0.02
			c-0.5,0.01-0.92,0.04-1.27,0.06c-0.29,0.02-0.51,0.04-0.67,0.04c-0.13,0-0.21-0.02-0.24-0.06c-0.02-0.02-0.03-0.07-0.03-0.15
			c0-0.08,0-0.14,0.02-0.19c0.02-0.07,0.14-0.11,0.36-0.11c0.62-0.03,1-0.16,1.14-0.4c0.15-0.27,0.22-0.64,0.2-1.13
			c0-0.12,0.01-0.4,0.02-0.81c0-0.14,0.01-0.23,0.01-0.27l-0.02-0.99l0.02-0.68v-0.39l0.02-0.63v-1.4l0.02-1.43
			c0-0.54-0.08-0.91-0.23-1.11c-0.16-0.22-0.54-0.33-1.13-0.33c-0.16,0-0.27-0.03-0.31-0.09c-0.02-0.03-0.03-0.08-0.03-0.14
			c0-0.11,0.02-0.18,0.05-0.22c0.03-0.03,0.09-0.05,0.19-0.05c0.17,0,0.51,0.02,1.03,0.04l0.55,0.01l0.46,0.02l0.76-0.02h0.62
			l0.74-0.02c0.04,0,0.17,0,0.39,0.01c1.05,0.01,1.97,0.02,2.76,0.04c0.08,0,0.14,0.01,0.16,0.03c0.03,0.02,0.04,0.06,0.05,0.13
			c0,0.04,0.01,0.1,0.01,0.2c0,0.26,0,0.5-0.01,0.74v0.58v0.32c0,0.14-0.07,0.21-0.22,0.21c-0.12,0-0.2-0.03-0.24-0.1
			c-0.02-0.03-0.04-0.16-0.06-0.38c-0.04-0.6-0.2-0.95-0.48-1.05c-0.14-0.07-0.5-0.12-1.1-0.16c-0.24-0.02-0.55-0.03-0.94-0.03
			l-0.53-0.03c-0.15,0-0.35,0.02-0.6,0.08c-0.3,0.06-0.47,0.3-0.51,0.73c-0.01,0.08-0.02,0.29-0.04,0.63v0.33l-0.02,0.38l0.02,0.65
			l-0.02,1.16c0,0.14,0.01,0.22,0.04,0.24c0.04,0.04,0.22,0.06,0.54,0.06l1.04-0.02c0.6,0,0.98-0.06,1.14-0.15
			c0.15-0.09,0.3-0.38,0.45-0.87c0.04-0.14,0.1-0.21,0.18-0.21c0.19,0,0.29,0.04,0.29,0.13c0,0.09,0,0.21-0.01,0.36
			c-0.01,0.12-0.01,0.37-0.01,0.76c-0.02,0.5-0.03,0.8-0.03,0.9c0,0.11,0,0.21,0,0.3c0.01,0.26,0.01,0.44,0.01,0.53
			c0,0.13-0.08,0.2-0.23,0.2c-0.11,0-0.17-0.03-0.2-0.08c-0.03-0.05-0.05-0.13-0.06-0.26c-0.06-0.43-0.12-0.7-0.2-0.83
			c-0.04-0.08-0.1-0.13-0.17-0.16s-0.21-0.05-0.42-0.07l-0.79-0.05l-0.55,0l-0.33-0.01c-0.35,0.02-0.54,0.03-0.57,0.04
			c-0.04,0.01-0.06,0.02-0.07,0.05c-0.01,0.03-0.01,0.13-0.01,0.29c0,0.21-0.02,0.72-0.03,1.53v0.68l-0.01,0.45
			c0,0.77,0.12,1.25,0.37,1.45c0.11,0.09,0.31,0.15,0.58,0.18c0.03,0.01,0.2,0.02,0.49,0.05l0.64,0.01l0.39,0.01
			c0.1,0,0.37-0.02,0.8-0.05c0.43-0.03,0.67-0.05,0.72-0.06c0.22-0.04,0.38-0.12,0.48-0.23c0.21-0.24,0.44-0.62,0.67-1.14
			C204.42,83.35,204.51,83.27,204.6,83.27"/>
		<path fill="#6F263D" d="M215.09,85.47c-0.2,0-0.47,0.01-0.83,0.04c-0.25,0.02-0.43,0.03-0.56,0.03c-0.11,0-0.2-0.03-0.29-0.1
			c-0.27-0.22-0.72-0.84-1.35-1.84l-0.19-0.28l-0.64-1.15c-0.4-0.64-0.62-0.99-0.65-1.04c-0.41-0.64-0.92-0.97-1.53-0.97
			c-0.15,0-0.26,0.01-0.33,0.03c-0.05,0.01-0.08,0.06-0.08,0.14l0.02,0.51l-0.02,0.52l0.04,0.89l-0.02,0.57l0.02,0.9v0.61
			c0,0.31,0.11,0.51,0.34,0.6c0.19,0.07,0.41,0.11,0.67,0.11c0.22,0,0.35,0.01,0.4,0.03c0.06,0.02,0.1,0.07,0.1,0.15
			c0,0.16-0.04,0.24-0.13,0.26c-0.06,0.02-0.25,0.02-0.57,0.02c-0.15,0-0.36-0.01-0.64-0.03c-0.47-0.03-0.81-0.05-1.03-0.05
			c-0.16,0-0.6,0.03-1.33,0.07c-0.26,0.01-0.44,0.02-0.55,0.02c-0.08,0-0.13-0.01-0.17-0.02c-0.06-0.03-0.09-0.1-0.09-0.23
			c0-0.11,0.06-0.18,0.17-0.22c0.05-0.01,0.19-0.02,0.45-0.04c0.34-0.02,0.62-0.13,0.82-0.31c0.09-0.08,0.14-0.21,0.16-0.39
			l0.02-0.64l0.02-0.46v-0.58l0.02-0.89v-0.78v-0.51c0-0.03,0-0.13,0-0.3c-0.01-0.21-0.01-0.43-0.01-0.65c0-0.1,0.01-0.46,0.03-1.07
			l0.01-1.2l0.01-0.67c0-0.38-0.04-0.64-0.13-0.79c-0.11-0.19-0.42-0.28-0.94-0.27c-0.28,0-0.45-0.02-0.53-0.05
			c-0.07-0.03-0.11-0.08-0.11-0.16c0-0.12,0.02-0.2,0.05-0.23c0.04-0.04,0.11-0.06,0.21-0.06c0.02,0,0.06,0,0.13,0.01h0.55
			c0.48,0,1.03,0.01,1.64,0.02c0.13,0,0.32,0.01,0.57,0.01c0.25,0,0.55,0,0.92-0.01c0.09,0,0.18,0,0.29,0
			c0.95,0,1.69,0.19,2.22,0.57c0.37,0.26,0.68,0.61,0.9,1.07c0.16,0.31,0.23,0.61,0.23,0.9c0,0.5-0.19,0.97-0.57,1.4
			c-0.34,0.39-0.74,0.66-1.22,0.8c-0.34,0.11-0.51,0.18-0.51,0.2c0,0.01,0.02,0.03,0.05,0.06c0.26,0.22,0.49,0.47,0.69,0.74
			c0.2,0.27,0.49,0.72,0.86,1.34l0.42,0.64c0.37,0.62,0.74,1.16,1.11,1.61c0.25,0.29,0.48,0.47,0.71,0.55
			c0.08,0.03,0.21,0.05,0.41,0.08c0.17,0.02,0.28,0.05,0.35,0.08c0.06,0.03,0.09,0.09,0.09,0.2c0,0.14-0.06,0.2-0.19,0.2
			L215.09,85.47z M209.7,75.52c-0.32,0-0.55,0.02-0.69,0.07c-0.22,0.07-0.33,0.26-0.33,0.57v0.47v0.74v0.41v0.15v0.69l-0.04,0.67
			c0,0.19,0.02,0.3,0.05,0.34c0.04,0.03,0.13,0.05,0.28,0.05c1.06,0,1.77-0.12,2.12-0.35c0.17-0.12,0.33-0.28,0.47-0.46
			c0.11-0.14,0.2-0.33,0.27-0.56c0.07-0.23,0.11-0.43,0.11-0.62c0-0.37-0.09-0.72-0.26-1.03c-0.17-0.32-0.42-0.6-0.74-0.83
			C210.66,75.62,210.25,75.52,209.7,75.52"/>
		<path fill="#6F263D" d="M220.01,74.82c0.56,0,0.97,0.03,1.25,0.11c0.47,0.12,0.75,0.22,0.84,0.3c0.03,0.03,0.06,0.23,0.1,0.62
			l0.01,0.33l0.03,0.3l0.03,0.35c0.01,0.11,0.02,0.19,0.02,0.24c0,0.13-0.07,0.2-0.22,0.2c-0.14,0-0.24-0.06-0.29-0.17
			c-0.01-0.03-0.07-0.19-0.15-0.48c-0.13-0.43-0.36-0.75-0.68-0.96c-0.34-0.22-0.7-0.32-1.07-0.32c-0.48,0-0.91,0.16-1.28,0.47
			c-0.38,0.32-0.57,0.74-0.57,1.23c0,0.51,0.2,0.96,0.6,1.34c0.18,0.17,0.43,0.35,0.75,0.53c0.16,0.09,0.53,0.28,1.1,0.56
			c0.77,0.38,1.33,0.77,1.67,1.16c0.47,0.53,0.7,1.14,0.7,1.83c0,0.67-0.11,1.19-0.34,1.58c-0.23,0.39-0.52,0.71-0.89,0.93
			c-0.45,0.29-0.82,0.48-1.11,0.56c-0.36,0.11-0.75,0.17-1.17,0.17c-0.63,0-1.26-0.11-1.88-0.33c-0.23-0.08-0.38-0.15-0.47-0.21
			c-0.06-0.04-0.09-0.11-0.1-0.23c-0.04-0.39-0.09-0.79-0.15-1.21c-0.03-0.2-0.05-0.32-0.05-0.38c0-0.14,0.1-0.2,0.3-0.2
			c0.07,0,0.13,0.04,0.17,0.11c0.03,0.05,0.07,0.17,0.14,0.36c0.12,0.36,0.34,0.68,0.64,0.96c0.41,0.37,0.91,0.55,1.52,0.55
			c0.54,0,0.98-0.16,1.31-0.48c0.46-0.43,0.7-0.94,0.7-1.51c0-0.4-0.09-0.74-0.26-1.01c-0.16-0.25-0.36-0.48-0.62-0.68
			c-0.22-0.18-0.41-0.31-0.57-0.39l-0.74-0.39c-0.82-0.49-1.3-0.79-1.46-0.89c-0.15-0.1-0.29-0.21-0.4-0.33
			c-0.41-0.41-0.62-0.94-0.62-1.59c0-0.75,0.14-1.31,0.43-1.7c0.25-0.34,0.52-0.61,0.81-0.79c0.33-0.22,0.73-0.38,1.21-0.49
			C219.47,74.85,219.72,74.82,220.01,74.82"/>
		<path fill="#6F263D" d="M224.61,75.08h0.07c0.38,0.04,0.94,0.06,1.69,0.06c0.39,0,0.83-0.02,1.32-0.06
			c0.31-0.02,0.57-0.03,0.79-0.03c0.18,0,0.27,0.07,0.27,0.21c0,0.1-0.02,0.17-0.05,0.2c-0.04,0.06-0.2,0.1-0.48,0.11
			c-0.35,0.01-0.57,0.06-0.69,0.13c-0.17,0.09-0.26,0.29-0.28,0.57l-0.02,1.09l-0.02,0.9l-0.01,1.19v0.36l0.01,0.99v1.59l0.02,0.52
			l-0.02,0.72c0,0.56,0.07,0.93,0.23,1.1c0.11,0.13,0.27,0.2,0.49,0.24l0.38,0.04c0.19,0.03,0.3,0.05,0.32,0.05
			c0.07,0.02,0.11,0.12,0.11,0.29c0,0.12-0.06,0.18-0.18,0.18c-0.08,0-0.28-0.01-0.58-0.03c-0.4-0.03-0.88-0.05-1.46-0.05
			c-0.19,0-0.6,0.02-1.24,0.05c-0.33,0.02-0.56,0.02-0.7,0.02c-0.07,0-0.13-0.01-0.18-0.02c-0.07-0.02-0.11-0.12-0.11-0.29
			c0-0.15,0.14-0.22,0.42-0.22c0.46,0,0.75-0.06,0.88-0.17c0.11-0.09,0.17-0.27,0.2-0.54l0.04-0.65V83.1l0.02-0.9l-0.03-1.75v-1.31
			l-0.02-0.49l0.02-0.74l-0.02-0.95c0-0.45-0.01-0.72-0.03-0.82c-0.06-0.28-0.23-0.46-0.52-0.52c-0.14-0.03-0.34-0.04-0.6-0.05
			c-0.15,0-0.24-0.01-0.28-0.03c-0.05-0.02-0.08-0.07-0.08-0.15c0-0.15,0.02-0.24,0.07-0.28C224.41,75.09,224.49,75.08,224.61,75.08
			"/>
		<path fill="#6F263D" d="M231.82,75.08h0.64h0.51h0.55l0.42,0.02l0.61-0.02l0.78,0.02c0.05,0,0.16,0,0.34-0.01
			c0.42-0.02,0.9-0.04,1.44-0.05c0.5-0.02,0.84-0.08,1.03-0.2c0.12-0.07,0.24-0.2,0.36-0.38c0.07-0.11,0.14-0.17,0.2-0.17
			c0.25,0,0.37,0.07,0.37,0.22c0,0.05-0.01,0.1-0.02,0.16c-0.07,0.41-0.13,0.8-0.17,1.17c-0.06,0.33-0.1,0.73-0.13,1.2
			c0,0.14-0.05,0.22-0.14,0.25c-0.04,0.01-0.08,0.01-0.12,0.01c-0.23,0-0.34-0.06-0.34-0.18v-0.07c0.01-0.08,0.02-0.14,0.02-0.19
			c0-0.47-0.07-0.78-0.21-0.93c-0.11-0.12-0.35-0.2-0.72-0.22c-0.1-0.01-0.54-0.02-1.33-0.02c-0.11,0-0.23,0-0.34-0.01h-0.23
			c-0.11,0-0.2,0.01-0.26,0.03c-0.04,0.02-0.05,0.06-0.05,0.14c0,0.28,0.01,0.56,0.02,0.82c0,0.11,0,0.18,0,0.19l0,0.43v0.29
			l-0.02,0.51v0.24v0.92l0.02,1.31v1.1l0.02,0.91v0.64c0,0.82,0.09,1.32,0.26,1.5c0.11,0.12,0.3,0.2,0.55,0.24
			c0.06,0.01,0.24,0.03,0.51,0.06c0.14,0.01,0.24,0.03,0.3,0.06c0.07,0.03,0.11,0.09,0.11,0.2c0,0.16-0.08,0.24-0.25,0.24
			c-0.23,0-0.69-0.02-1.39-0.05c-0.12,0-0.28-0.01-0.48-0.01c-0.35,0-0.93,0.03-1.76,0.1c-0.25,0.02-0.44,0.03-0.56,0.03
			c-0.12,0-0.2-0.01-0.26-0.02c-0.1-0.02-0.14-0.11-0.14-0.25c0-0.15,0.13-0.23,0.4-0.24c0.65-0.04,1.06-0.2,1.22-0.48
			c0.11-0.19,0.16-0.59,0.16-1.21l-0.02-0.65l0.02-1.23c0-0.03-0.01-0.23-0.02-0.6c-0.02-0.66-0.02-1.35-0.02-2.06l-0.01-0.86v-1.12
			c0-0.55-0.02-0.9-0.06-1.06c-0.02-0.04-0.14-0.07-0.36-0.08l-0.29-0.01l-0.51,0.01c-0.84-0.01-1.36,0.05-1.57,0.19
			c-0.3,0.13-0.54,0.51-0.71,1.13c-0.05,0.25-0.14,0.37-0.26,0.37c-0.25,0-0.37-0.08-0.37-0.23c0-0.05,0.01-0.11,0.03-0.18
			c0.02-0.11,0.06-0.39,0.09-0.86c0.04-0.47,0.06-0.8,0.06-1c0-0.06,0-0.12-0.01-0.2c-0.01-0.11-0.01-0.21-0.01-0.27
			c0-0.18,0.1-0.27,0.3-0.27c0.09,0,0.17,0.02,0.23,0.07c0.04,0.03,0.11,0.11,0.21,0.26c0.15,0.22,0.34,0.33,0.58,0.33h0.55
			L231.82,75.08z"/>
		<path fill="#6F263D" d="M243.44,75.06c0.14,0,0.24,0.01,0.3,0.02c0.11,0.03,0.16,0.11,0.16,0.25c0,0.12-0.07,0.19-0.2,0.22
			c-0.05,0.01-0.17,0.01-0.38,0.01c-0.25,0-0.4,0.01-0.45,0.02c-0.14,0.03-0.21,0.11-0.21,0.24c0,0.14,0.13,0.38,0.38,0.73
			c0.08,0.11,0.17,0.25,0.29,0.42l0.14,0.2c0.37,0.56,0.81,1.16,1.33,1.8c0.33,0.42,0.51,0.63,0.55,0.63c0.06,0,0.36-0.38,0.92-1.14
			c0.14-0.18,0.29-0.38,0.44-0.6c0.1-0.14,0.29-0.39,0.56-0.75c0.27-0.37,0.43-0.61,0.49-0.71c0.12-0.18,0.17-0.33,0.17-0.43
			c0-0.25-0.23-0.38-0.68-0.39c-0.26-0.01-0.41-0.02-0.46-0.03c-0.05-0.02-0.07-0.1-0.07-0.25c0-0.12,0.1-0.17,0.3-0.17
			c0.2,0,0.57,0.02,1.11,0.06h0.22c0.49,0,0.85-0.01,1.1-0.04c0.15-0.01,0.26-0.02,0.34-0.02c0.11,0,0.17,0.03,0.21,0.09
			c0.02,0.03,0.03,0.1,0.03,0.2c0,0.13-0.1,0.19-0.31,0.18c-0.29-0.01-0.51,0.06-0.66,0.18c-0.09,0.08-0.23,0.24-0.41,0.49
			l-0.27,0.34l-0.47,0.63c-0.47,0.59-0.85,1.08-1.14,1.47c-0.17,0.23-0.36,0.47-0.56,0.72c-0.36,0.45-0.55,0.75-0.58,0.9
			c-0.04,0.13-0.05,0.55-0.05,1.25v0.19l0,0.41c0,0.03,0,0.09-0.01,0.19c0,0.2-0.01,0.68-0.01,1.44c-0.01,0.44,0.05,0.75,0.18,0.91
			c0.15,0.18,0.54,0.29,1.17,0.32c0.13,0,0.22,0.03,0.25,0.08c0.03,0.04,0.04,0.09,0.04,0.18c0,0.16-0.07,0.23-0.2,0.23h-0.05
			l-0.22,0l-0.44-0.02c-0.38,0-0.71-0.02-0.98-0.04c-0.13-0.01-0.35-0.02-0.66-0.02c-0.37,0-0.79,0.02-1.27,0.06
			c-0.27,0.02-0.43,0.04-0.48,0.04c-0.19,0-0.29-0.06-0.29-0.2c0-0.16,0.04-0.26,0.11-0.29c0.05-0.02,0.14-0.03,0.28-0.03
			c0.4,0,0.72-0.06,0.94-0.19c0.23-0.13,0.34-0.57,0.34-1.31l-0.02-0.43l0.02-0.27c-0.02-0.23-0.03-0.46-0.03-0.7v-0.18
			c-0.01-0.18-0.01-0.31-0.01-0.39v-0.3c0.01-0.15,0.02-0.25,0.02-0.29c0-0.2-0.01-0.33-0.03-0.4c-0.01-0.04-0.1-0.2-0.27-0.48
			c-0.21-0.35-0.61-0.92-1.21-1.71l-0.26-0.36l-0.39-0.54c-0.62-0.92-1.06-1.51-1.32-1.75c-0.17-0.14-0.37-0.2-0.61-0.21
			c-0.19-0.01-0.32-0.03-0.39-0.05c-0.08-0.02-0.13-0.12-0.13-0.28c0-0.11,0.1-0.17,0.29-0.17c0.21,0,0.56,0.02,1.04,0.07
			c0.17,0.02,0.47,0.02,0.88,0.02L243.44,75.06z"/>
	</g>
</g>
</svg>
